<svg xmlns="http://www.w3.org/2000/svg" xmlns:xlink="http://www.w3.org/1999/xlink" contentStyleType="text/css" data-diagram-type="CLASS" height="1084px" preserveAspectRatio="none" style="width:270px;height:1084px;background:#FFFFFF;" version="1.1" viewBox="0 0 270 1084" width="270px" zoomAndPan="magnify"><title>TripTailor - Analysis Object Model</title><defs/><g><g class="title" data-source-line="2"><text fill="#000000" font-family="Arial" font-size="14" font-weight="bold" lengthAdjust="spacing" textLength="226.3721" x="18.314" y="23.1318">TripTailor - Analysis Object Model</text></g><!--class Traveler--><g class="entity" data-entity="Traveler" data-source-line="15" data-uid="ent0002" id="entity_Traveler"><rect fill="#EFF6FF" height="136.3906" rx="5" ry="5" style="stroke:#2563EB;stroke-width:0.5;" width="183.9717" x="33" y="49.0986"/><ellipse cx="95.0635" cy="69.0474" fill="#ADD1B2" rx="11" ry="11" style="stroke:#181818;stroke-width:1;"/><path d="M97.5366,75.1904 Q96.9556,75.4893 96.3164,75.6387 Q95.6772,75.7881 94.9717,75.7881 Q92.4648,75.7881 91.145,74.1362 Q89.8252,72.4844 89.8252,69.3633 Q89.8252,66.2339 91.145,64.582 Q92.4648,62.9302 94.9717,62.9302 Q95.6772,62.9302 96.3247,63.0796 Q96.9722,63.229 97.5366,63.5278 L97.5366,66.2505 Q96.9058,65.6694 96.3123,65.3997 Q95.7188,65.1299 95.0879,65.1299 Q93.7432,65.1299 93.0583,66.1965 Q92.3735,67.2632 92.3735,69.3633 Q92.3735,71.4551 93.0583,72.5217 Q93.7432,73.5884 95.0879,73.5884 Q95.7188,73.5884 96.3123,73.3186 Q96.9058,73.0488 97.5366,72.4678 Z " fill="#000000"/><text fill="#000000" font-family="Arial" font-size="12" font-style="italic" lengthAdjust="spacing" textLength="42.0293" x="120.2212" y="65.3545">&#171;entity&#187;</text><text fill="#0F172A" font-family="Arial" font-size="14" lengthAdjust="spacing" textLength="51.3447" x="115.5635" y="81.0293">Traveler</text><line style="stroke:#2563EB;stroke-width:0.5;" x1="34" x2="215.9717" y1="88.9961" y2="88.9961"/><text fill="#000000" font-family="Arial" font-size="14" lengthAdjust="spacing" textLength="52.8965" x="39" y="106.1279">id: UUID</text><text fill="#000000" font-family="Arial" font-size="14" lengthAdjust="spacing" textLength="112.8271" x="39" y="122.2266">email: String [0..1]</text><text fill="#000000" font-family="Arial" font-size="14" lengthAdjust="spacing" textLength="171.9717" x="39" y="138.3252">passwordHash: String [0..1]</text><text fill="#000000" font-family="Arial" font-size="14" lengthAdjust="spacing" textLength="106.6133" x="39" y="154.4238">isDemo: Boolean</text><text fill="#000000" font-family="Arial" font-size="14" lengthAdjust="spacing" textLength="109.7305" x="39" y="170.5225">createdAt: Instant</text><line style="stroke:#2563EB;stroke-width:0.5;" x1="34" x2="215.9717" y1="177.4893" y2="177.4893"/></g><!--class Trip--><g class="entity" data-entity="Trip" data-source-line="23" data-uid="ent0003" id="entity_Trip"><rect fill="#EFF6FF" height="136.3906" rx="5" ry="5" style="stroke:#2563EB;stroke-width:0.5;" width="139.6201" x="55" y="239.0986"/><ellipse cx="101.5454" cy="259.0474" fill="#ADD1B2" rx="11" ry="11" style="stroke:#181818;stroke-width:1;"/><path d="M104.0186,265.1904 Q103.4375,265.4893 102.7983,265.6387 Q102.1592,265.7881 101.4536,265.7881 Q98.9468,265.7881 97.627,264.1362 Q96.3071,262.4844 96.3071,259.3633 Q96.3071,256.2339 97.627,254.582 Q98.9468,252.9302 101.4536,252.9302 Q102.1592,252.9302 102.8066,253.0796 Q103.4541,253.229 104.0186,253.5278 L104.0186,256.2505 Q103.3877,255.6694 102.7942,255.3997 Q102.2007,255.1299 101.5698,255.1299 Q100.2251,255.1299 99.5403,256.1965 Q98.8555,257.2632 98.8555,259.3633 Q98.8555,261.4551 99.5403,262.5217 Q100.2251,263.5884 101.5698,263.5884 Q102.2007,263.5884 102.7942,263.3186 Q103.3877,263.0488 104.0186,262.4678 Z " fill="#000000"/><text fill="#000000" font-family="Arial" font-size="12" font-style="italic" lengthAdjust="spacing" textLength="42.0293" x="120.0454" y="255.3545">&#171;entity&#187;</text><text fill="#0F172A" font-family="Arial" font-size="14" lengthAdjust="spacing" textLength="24.1104" x="129.0049" y="271.0293">Trip</text><line style="stroke:#2563EB;stroke-width:0.5;" x1="56" x2="193.6201" y1="278.9961" y2="278.9961"/><text fill="#000000" font-family="Arial" font-size="14" lengthAdjust="spacing" textLength="52.8965" x="61" y="296.1279">id: UUID</text><text fill="#000000" font-family="Arial" font-size="14" lengthAdjust="spacing" textLength="112.0684" x="61" y="312.2266">destination: String</text><text fill="#000000" font-family="Arial" font-size="14" lengthAdjust="spacing" textLength="127.6201" x="61" y="328.3252">startDate: LocalDate</text><text fill="#000000" font-family="Arial" font-size="14" lengthAdjust="spacing" textLength="123.751" x="61" y="344.4238">endDate: LocalDate</text><text fill="#000000" font-family="Arial" font-size="14" lengthAdjust="spacing" textLength="70.0342" x="61" y="360.5225">vibe: String</text><line style="stroke:#2563EB;stroke-width:0.5;" x1="56" x2="193.6201" y1="367.4893" y2="367.4893"/></g><!--class Schedule--><g class="entity" data-entity="Schedule" data-source-line="31" data-uid="ent0004" id="entity_Schedule"><rect fill="#EFF6FF" height="55.8975" rx="5" ry="5" style="stroke:#2563EB;stroke-width:0.5;" width="105.3906" x="72.5" y="412.0986"/><ellipse cx="87.5" cy="432.0474" fill="#ADD1B2" rx="11" ry="11" style="stroke:#181818;stroke-width:1;"/><path d="M89.9731,438.1904 Q89.3921,438.4893 88.7529,438.6387 Q88.1138,438.7881 87.4082,438.7881 Q84.9014,438.7881 83.5815,437.1362 Q82.2617,435.4844 82.2617,432.3633 Q82.2617,429.2339 83.5815,427.582 Q84.9014,425.9302 87.4082,425.9302 Q88.1138,425.9302 88.7612,426.0796 Q89.4087,426.229 89.9731,426.5278 L89.9731,429.2505 Q89.3423,428.6694 88.7488,428.3997 Q88.1553,428.1299 87.5244,428.1299 Q86.1797,428.1299 85.4949,429.1965 Q84.8101,430.2632 84.8101,432.3633 Q84.8101,434.4551 85.4949,435.5217 Q86.1797,436.5884 87.5244,436.5884 Q88.1553,436.5884 88.7488,436.3186 Q89.3423,436.0488 89.9731,435.4678 Z " fill="#000000"/><text fill="#000000" font-family="Arial" font-size="12" font-style="italic" lengthAdjust="spacing" textLength="77.3906" x="99.5" y="428.3545">&#171;value object&#187;</text><text fill="#0F172A" font-family="Arial" font-size="14" lengthAdjust="spacing" textLength="58.3789" x="109.0059" y="444.0293">Schedule</text><line style="stroke:#2563EB;stroke-width:0.5;" x1="73.5" x2="176.8906" y1="451.9961" y2="451.9961"/><line style="stroke:#2563EB;stroke-width:0.5;" x1="73.5" x2="176.8906" y1="459.9961" y2="459.9961"/></g><!--class Day--><g class="entity" data-entity="Day" data-source-line="33" data-uid="ent0005" id="entity_Day"><rect fill="#EFF6FF" height="104.1934" rx="5" ry="5" style="stroke:#2563EB;stroke-width:0.5;" width="135.7305" x="57" y="505.0986"/><ellipse cx="101.6006" cy="525.0474" fill="#ADD1B2" rx="11" ry="11" style="stroke:#181818;stroke-width:1;"/><path d="M104.0737,531.1904 Q103.4927,531.4893 102.8535,531.6387 Q102.2144,531.7881 101.5088,531.7881 Q99.002,531.7881 97.6821,530.1362 Q96.3623,528.4844 96.3623,525.3633 Q96.3623,522.2339 97.6821,520.582 Q99.002,518.9302 101.5088,518.9302 Q102.2144,518.9302 102.8618,519.0796 Q103.5093,519.229 104.0737,519.5278 L104.0737,522.2505 Q103.4429,521.6694 102.8494,521.3997 Q102.2559,521.1299 101.625,521.1299 Q100.2803,521.1299 99.5955,522.1965 Q98.9106,523.2632 98.9106,525.3633 Q98.9106,527.4551 99.5955,528.5217 Q100.2803,529.5884 101.625,529.5884 Q102.2559,529.5884 102.8494,529.3186 Q103.4429,529.0488 104.0737,528.4678 Z " fill="#000000"/><text fill="#000000" font-family="Arial" font-size="12" font-style="italic" lengthAdjust="spacing" textLength="42.0293" x="120.1006" y="521.3545">&#171;entity&#187;</text><text fill="#0F172A" font-family="Arial" font-size="14" lengthAdjust="spacing" textLength="24.8965" x="128.667" y="537.0293">Day</text><line style="stroke:#2563EB;stroke-width:0.5;" x1="58" x2="191.7305" y1="544.9961" y2="544.9961"/><text fill="#000000" font-family="Arial" font-size="14" lengthAdjust="spacing" textLength="52.8965" x="63" y="562.1279">id: UUID</text><text fill="#000000" font-family="Arial" font-size="14" lengthAdjust="spacing" textLength="123.7305" x="63" y="578.2266">dayNumber: Integer</text><text fill="#000000" font-family="Arial" font-size="14" lengthAdjust="spacing" textLength="98.0684" x="63" y="594.3252">date: LocalDate</text><line style="stroke:#2563EB;stroke-width:0.5;" x1="58" x2="191.7305" y1="601.292" y2="601.292"/></g><!--class Activity--><g class="entity" data-entity="Activity" data-source-line="39" data-uid="ent0006" id="entity_Activity"><rect fill="#EFF6FF" height="168.5879" rx="5" ry="5" style="stroke:#2563EB;stroke-width:0.5;" width="162.9785" x="43.5" y="646.0986"/><ellipse cx="98.5703" cy="666.0474" fill="#ADD1B2" rx="11" ry="11" style="stroke:#181818;stroke-width:1;"/><path d="M101.0435,672.1904 Q100.4624,672.4893 99.8232,672.6387 Q99.1841,672.7881 98.4785,672.7881 Q95.9717,672.7881 94.6519,671.1362 Q93.332,669.4844 93.332,666.3633 Q93.332,663.2339 94.6519,661.582 Q95.9717,659.9302 98.4785,659.9302 Q99.1841,659.9302 99.8315,660.0796 Q100.479,660.229 101.0435,660.5278 L101.0435,663.2505 Q100.4126,662.6694 99.8191,662.3997 Q99.2256,662.1299 98.5947,662.1299 Q97.25,662.1299 96.5652,663.1965 Q95.8804,664.2632 95.8804,666.3633 Q95.8804,668.4551 96.5652,669.5217 Q97.25,670.5884 98.5947,670.5884 Q99.2256,670.5884 99.8191,670.3186 Q100.4126,670.0488 101.0435,669.4678 Z " fill="#000000"/><text fill="#000000" font-family="Arial" font-size="12" font-style="italic" lengthAdjust="spacing" textLength="42.0293" x="120.2246" y="662.3545">&#171;entity&#187;</text><text fill="#0F172A" font-family="Arial" font-size="14" lengthAdjust="spacing" textLength="44.3379" x="119.0703" y="678.0293">Activity</text><line style="stroke:#2563EB;stroke-width:0.5;" x1="44.5" x2="205.4785" y1="685.9961" y2="685.9961"/><text fill="#000000" font-family="Arial" font-size="14" lengthAdjust="spacing" textLength="52.8965" x="49.5" y="703.1279">id: UUID</text><text fill="#000000" font-family="Arial" font-size="14" lengthAdjust="spacing" textLength="133.8066" x="49.5" y="719.2266">timeBlock: TimeBlock</text><text fill="#000000" font-family="Arial" font-size="14" lengthAdjust="spacing" textLength="66.1377" x="49.5" y="735.3252">title: String</text><text fill="#000000" font-family="Arial" font-size="14" lengthAdjust="spacing" textLength="112.0547" x="49.5" y="751.4238">description: String</text><text fill="#000000" font-family="Arial" font-size="14" lengthAdjust="spacing" textLength="150.9785" x="49.5" y="767.5225">durationMinutes: Integer</text><text fill="#000000" font-family="Arial" font-size="14" lengthAdjust="spacing" textLength="143.9854" x="49.5" y="783.6211">isIndoor: Boolean [0..1]</text><text fill="#000000" font-family="Arial" font-size="14" lengthAdjust="spacing" textLength="135.3857" x="49.5" y="799.7197">tags: ActivityTag [0..*]</text><line style="stroke:#2563EB;stroke-width:0.5;" x1="44.5" x2="205.4785" y1="806.6865" y2="806.6865"/></g><!--class TimeBlock--><g class="entity" data-entity="TimeBlock" data-source-line="49" data-uid="ent0007" id="entity_TimeBlock"><rect fill="#EFF6FF" height="128.4932" rx="5" ry="5" style="stroke:#2563EB;stroke-width:0.5;" width="99.8896" x="6" y="900.5986"/><ellipse cx="22.1452" cy="916.5986" fill="#EB937F" rx="11" ry="11" style="stroke:#181818;stroke-width:1;"/><path d="M25.7595,923.0986 L18.0397,923.0986 L18.0397,910.7056 L25.7595,910.7056 L25.7595,912.8638 L20.4885,912.8638 L20.4885,915.5366 L25.2614,915.5366 L25.2614,917.6948 L20.4885,917.6948 L20.4885,920.9404 L25.7595,920.9404 Z " fill="#000000"/><text fill="#0F172A" font-family="Arial" font-size="14" lengthAdjust="spacing" textLength="65.3447" x="36.3997" y="921.6812">TimeBlock</text><line style="stroke:#2563EB;stroke-width:0.5;" x1="7" x2="104.8896" y1="932.5986" y2="932.5986"/><text fill="#000000" font-family="Arial" font-size="14" lengthAdjust="spacing" textLength="67.6621" x="12" y="949.7305">MORNING</text><text fill="#000000" font-family="Arial" font-size="14" lengthAdjust="spacing" textLength="42" x="12" y="965.8291">NOON</text><text fill="#000000" font-family="Arial" font-size="14" lengthAdjust="spacing" textLength="87.8896" x="12" y="981.9277">AFTERNOON</text><text fill="#000000" font-family="Arial" font-size="14" lengthAdjust="spacing" textLength="63.0137" x="12" y="998.0264">EVENING</text><text fill="#000000" font-family="Arial" font-size="14" lengthAdjust="spacing" textLength="43.5518" x="12" y="1014.125">NIGHT</text><line style="stroke:#2563EB;stroke-width:0.5;" x1="7" x2="104.8896" y1="1021.0918" y2="1021.0918"/></g><!--class ActivityTag--><g class="entity" data-entity="ActivityTag" data-source-line="57" data-uid="ent0008" id="entity_ActivityTag"><rect fill="#EFF6FF" height="225.085" rx="5" ry="5" style="stroke:#2563EB;stroke-width:0.5;" width="139.5859" x="124" y="852.0986"/><ellipse cx="156.6058" cy="868.0986" fill="#EB937F" rx="11" ry="11" style="stroke:#181818;stroke-width:1;"/><path d="M160.2201,874.5986 L152.5003,874.5986 L152.5003,862.2056 L160.2201,862.2056 L160.2201,864.3638 L154.9491,864.3638 L154.9491,867.0366 L159.722,867.0366 L159.722,869.1948 L154.9491,869.1948 L154.9491,872.4404 L160.2201,872.4404 Z " fill="#000000"/><text fill="#0F172A" font-family="Arial" font-size="14" lengthAdjust="spacing" textLength="68.4619" x="174.5182" y="873.1812">ActivityTag</text><line style="stroke:#2563EB;stroke-width:0.5;" x1="125" x2="262.5859" y1="884.0986" y2="884.0986"/><text fill="#000000" font-family="Arial" font-size="14" lengthAdjust="spacing" textLength="71.5518" x="130" y="901.2305">OUTDOOR</text><text fill="#000000" font-family="Arial" font-size="14" lengthAdjust="spacing" textLength="56" x="130" y="917.3291">INDOOR</text><text fill="#000000" font-family="Arial" font-size="14" lengthAdjust="spacing" textLength="73.9033" x="130" y="933.4277">CULTURAL</text><text fill="#000000" font-family="Arial" font-size="14" lengthAdjust="spacing" textLength="57.5654" x="130" y="949.5264">SPORTY</text><text fill="#000000" font-family="Arial" font-size="14" lengthAdjust="spacing" textLength="70.7998" x="130" y="965.625">RELAXING</text><text fill="#000000" font-family="Arial" font-size="14" lengthAdjust="spacing" textLength="107.3447" x="130" y="981.7236">ADVENTUROUS</text><text fill="#000000" font-family="Arial" font-size="14" lengthAdjust="spacing" textLength="40.4414" x="130" y="997.8223">FOOD</text><text fill="#000000" font-family="Arial" font-size="14" lengthAdjust="spacing" textLength="73.9033" x="130" y="1013.9209">SHOPPING</text><text fill="#000000" font-family="Arial" font-size="14" lengthAdjust="spacing" textLength="119" x="130" y="1030.0195">ENTERTAINMENT</text><text fill="#000000" font-family="Arial" font-size="14" lengthAdjust="spacing" textLength="127.5859" x="130" y="1046.1182">FAMILY_FRIENDLY</text><text fill="#000000" font-family="Arial" font-size="14" lengthAdjust="spacing" textLength="46.6758" x="130" y="1062.2168">PARTY</text><line style="stroke:#2563EB;stroke-width:0.5;" x1="125" x2="262.5859" y1="1069.1836" y2="1069.1836"/></g><g class="link" data-entity-1="Traveler" data-entity-2="Trip" data-uid="lnk9" id="link_Traveler_Trip"><path d="M125,185.1747 C125,202.6796 125,221.5449 125,239.0484" fill="none" style="stroke:#475569;stroke-width:1;"/><text fill="#000000" font-family="Arial" font-size="13" lengthAdjust="spacing" textLength="30.3481" x="127" y="217.2925">owns</text><text fill="#000000" font-family="Arial" font-size="13" lengthAdjust="spacing" textLength="19.5127" x="105" y="236.2423">0..*</text><text fill="#000000" font-family="Arial" font-size="13" lengthAdjust="spacing" textLength="7.23" x="117" y="198.3686">1</text></g><g class="link" data-entity-1="Trip" data-entity-2="Schedule" data-uid="lnk10" id="link_Trip_Schedule"><polygon fill="#475569" points="125,375.1337,121,381.1337,125,387.1337,129,381.1337,125,375.1337" style="stroke:#475569;stroke-width:1;"/><path d="M125,387.1337 C125,400.2273 125,401.239 125,412.0745" fill="none" style="stroke:#475569;stroke-width:1;"/><text fill="#000000" font-family="Arial" font-size="13" lengthAdjust="spacing" textLength="7.23" x="117" y="409.2684">1</text><text fill="#000000" font-family="Arial" font-size="13" lengthAdjust="spacing" textLength="7.23" x="117" y="388.3275">1</text></g><g class="link" data-entity-1="Schedule" data-entity-2="Day" data-uid="lnk11" id="link_Schedule_Day"><polygon fill="#475569" points="125,468.352,121,474.352,125,480.352,129,474.352,125,468.352" style="stroke:#475569;stroke-width:1;"/><path d="M125,480.352 C125,491.2449 125,492.1624 125,504.6898" fill="none" style="stroke:#475569;stroke-width:1;"/><text fill="#000000" font-family="Arial" font-size="13" lengthAdjust="spacing" textLength="19.5127" x="105" y="501.8836">1..*</text><text fill="#000000" font-family="Arial" font-size="13" lengthAdjust="spacing" textLength="7.23" x="117" y="481.5459">1</text></g><g class="link" data-entity-1="Day" data-entity-2="Activity" data-uid="lnk12" id="link_Day_Activity"><polygon fill="#475569" points="125,609.5543,121,615.5543,125,621.5543,129,615.5543,125,609.5543" style="stroke:#475569;stroke-width:1;"/><path d="M125,621.5543 C125,632.9994 125,633.4204 125,645.7876" fill="none" style="stroke:#475569;stroke-width:1;"/><text fill="#000000" font-family="Arial" font-size="13" lengthAdjust="spacing" textLength="19.5127" x="105" y="642.9814">0..*</text><text fill="#000000" font-family="Arial" font-size="13" lengthAdjust="spacing" textLength="7.23" x="117" y="622.7481">1</text></g><g class="link" data-entity-1="Activity" data-entity-2="TimeBlock" data-uid="lnk13" id="link_Activity_TimeBlock"><polygon fill="#475569" points="74.809,900.3569,81.2086,892.8706,76.2343,895.5644,73.5406,890.59,74.809,900.3569" style="stroke:#475569;stroke-width:1;"/><path d="M100.0894,815.356 C91.7514,843.3911 84.312,868.4045 76.5194,894.6059" fill="none" style="stroke:#475569;stroke-width:1;"/><text fill="#000000" font-family="Arial" font-size="13" lengthAdjust="spacing" textLength="7.23" x="66.809" y="897.5507">1</text></g><g class="link" data-entity-1="Activity" data-entity-2="ActivityTag" data-uid="lnk14" id="link_Activity_ActivityTag"><polygon fill="#475569" points="160.719,851.6972,161.9873,841.9304,159.2936,846.9047,154.3193,844.211,160.719,851.6972" style="stroke:#475569;stroke-width:1;"/><path d="M149.9106,815.356 C153.4234,827.167 155.3698,833.7115 159.0085,845.9462" fill="none" style="stroke:#475569;stroke-width:1;"/><text fill="#000000" font-family="Arial" font-size="13" lengthAdjust="spacing" textLength="19.5127" x="140.719" y="848.8911">0..*</text></g><!--SRC=[VL9XQzim4FtkNw5btmefJRUsp8I0Mjkj8R63uuoLKSR5LbEjiXGaEI6C_VUTdDXnEsY- -7BlxjtJtVkqqR2kW0ZOgzeIKp4B4ZpBhM0artoJ0nTAao6X4iJUS4FIrMzMM39J9HEUPrwvt826YgoWU5rhLSloJhcMpr7pwrMO5oZLZiirUGPXM0yvjcd9D1bTz82IFKCjRAIaJQ1YX6eEeeTJhTNkEE_hpTNLzRSUM0WmXlpn2BbzhosCeclKXeZI9TF7xENLzPVm5hDktZ5t4OrkBgdtr_CETBc6BHEeSpnc4lUqdqoQ4RpqoN8P1nYo2fVcauNLxgq_ByxFHq-Otc3x3iSzW7dv7-KcO9NoKP0I32Hc2it0if9QdyJIu5riNmNVVA2WPCPo2POhsKx2B79e6o2dJwQg0E529rUM_oUtVCMwrcxiedXXPOtM68-t86f6L6E6oQGj263_aIpO9tMrOjgzoB8rqqtoxUnk62qitoBF1uIML-nMgEBL9taRDccqR-_Xk8u25_Pk7MMjcmtDkAmjCtrDtCIoL4ftvpZToS8QIrjjEHnEUFRaT3DPLoSXZTXPcYLnSezHagO9VcYKXzan3h-7BHZVF-GTHP_TaQJBF4ZJ3ACuEGPtosc-pEWKmyKypV973B9mIdyS-6Y0r5YGBXVEpcdgjhLuIEVp0uvWcEKqJcOOkGewYwUFlw8i3fDWwiZcr96YeixmWz6038Tau9uxE3ZG9sed3PbupJzNSEOgyDiwnUiiSqARVdIAvzpIfG-qxTEzxlh3uQGfEXtuBVIs3rVc_GC0]--></g></svg>
