<svg xmlns="http://www.w3.org/2000/svg" xmlns:xlink="http://www.w3.org/1999/xlink" contentStyleType="text/css" height="857px" preserveAspectRatio="none" style="width:467px;height:857px;background:#FFFFFF;" version="1.1" viewBox="0 0 467 857" width="467px" zoomAndPan="magnify"><title>TripTailor - Class Diagram</title><defs/><g><text fill="#000000" font-family="sans-serif" font-size="14" font-weight="bold" lengthAdjust="spacing" textLength="194.8174" x="132.3413" y="23.5352">TripTailor - Class Diagram</text><!--class Trip--><g id="elem_Trip"><rect codeLine="4" fill="#F1F1F1" height="130.4414" id="Trip" rx="2.5" ry="2.5" style="stroke:#181818;stroke-width:0.5;" width="146.4219" x="28" y="333.4883"/><ellipse cx="83.2412" cy="349.4883" fill="#ADD1B2" rx="11" ry="11" style="stroke:#181818;stroke-width:1.0;"/><path d="M85.7144,355.6313 Q85.1333,355.9302 84.4941,356.0796 Q83.855,356.229 83.1494,356.229 Q80.6426,356.229 79.3228,354.5771 Q78.0029,352.9253 78.0029,349.8042 Q78.0029,346.6748 79.3228,345.0229 Q80.6426,343.3711 83.1494,343.3711 Q83.855,343.3711 84.5024,343.5205 Q85.1499,343.6699 85.7144,343.9688 L85.7144,346.6914 Q85.0835,346.1104 84.49,345.8406 Q83.8965,345.5708 83.2656,345.5708 Q81.9209,345.5708 81.2361,346.6375 Q80.5513,347.7041 80.5513,349.8042 Q80.5513,351.896 81.2361,352.9626 Q81.9209,354.0293 83.2656,354.0293 Q83.8965,354.0293 84.49,353.7595 Q85.0835,353.4897 85.7144,352.9087 Z " fill="#000000"/><text fill="#000000" font-family="sans-serif" font-size="14" lengthAdjust="spacing" textLength="27.4395" x="103.7412" y="354.7793">Trip</text><line style="stroke:#181818;stroke-width:0.5;" x1="29" x2="173.4219" y1="365.4883" y2="365.4883"/><ellipse cx="39" cy="379.2324" fill="none" rx="3" ry="3" style="stroke:#038048;stroke-width:1.0;"/><text fill="#000000" font-family="sans-serif" font-size="14" lengthAdjust="spacing" textLength="51.208" x="48" y="383.0234">UUID id</text><ellipse cx="39" cy="395.7207" fill="none" rx="3" ry="3" style="stroke:#038048;stroke-width:1.0;"/><text fill="#000000" font-family="sans-serif" font-size="14" lengthAdjust="spacing" textLength="120.4219" x="48" y="399.5117">String destination</text><ellipse cx="39" cy="412.209" fill="none" rx="3" ry="3" style="stroke:#038048;stroke-width:1.0;"/><text fill="#000000" font-family="sans-serif" font-size="14" lengthAdjust="spacing" textLength="98.0068" x="48" y="416">Date startDate</text><ellipse cx="39" cy="428.6973" fill="none" rx="3" ry="3" style="stroke:#038048;stroke-width:1.0;"/><text fill="#000000" font-family="sans-serif" font-size="14" lengthAdjust="spacing" textLength="92.2373" x="48" y="432.4883">Date endDate</text><ellipse cx="39" cy="445.1855" fill="none" rx="3" ry="3" style="stroke:#038048;stroke-width:1.0;"/><text fill="#000000" font-family="sans-serif" font-size="14" lengthAdjust="spacing" textLength="72.3037" x="48" y="448.9766">String vibe</text><line style="stroke:#181818;stroke-width:0.5;" x1="29" x2="173.4219" y1="455.9297" y2="455.9297"/></g><!--class Day--><g id="elem_Day"><rect codeLine="12" fill="#F1F1F1" height="97.4648" id="Day" rx="2.5" ry="2.5" style="stroke:#181818;stroke-width:0.5;" width="101.0176" x="50.5" y="518.4883"/><ellipse cx="85.0684" cy="534.4883" fill="#ADD1B2" rx="11" ry="11" style="stroke:#181818;stroke-width:1.0;"/><path d="M87.5416,540.6313 Q86.9605,540.9302 86.3213,541.0796 Q85.6822,541.229 84.9766,541.229 Q82.4698,541.229 81.15,539.5771 Q79.8301,537.9253 79.8301,534.8042 Q79.8301,531.6748 81.15,530.0229 Q82.4698,528.3711 84.9766,528.3711 Q85.6822,528.3711 86.3296,528.5205 Q86.9771,528.6699 87.5416,528.9688 L87.5416,531.6914 Q86.9107,531.1104 86.3172,530.8406 Q85.7237,530.5708 85.0928,530.5708 Q83.7481,530.5708 83.0633,531.6375 Q82.3785,532.7041 82.3785,534.8042 Q82.3785,536.896 83.0633,537.9626 Q83.7481,539.0293 85.0928,539.0293 Q85.7237,539.0293 86.3172,538.7595 Q86.9107,538.4897 87.5416,537.9087 Z " fill="#000000"/><text fill="#000000" font-family="sans-serif" font-size="14" lengthAdjust="spacing" textLength="25.5322" x="103.4169" y="539.7793">Day</text><line style="stroke:#181818;stroke-width:0.5;" x1="51.5" x2="150.5176" y1="550.4883" y2="550.4883"/><ellipse cx="61.5" cy="564.2324" fill="none" rx="3" ry="3" style="stroke:#038048;stroke-width:1.0;"/><text fill="#000000" font-family="sans-serif" font-size="14" lengthAdjust="spacing" textLength="51.208" x="70.5" y="568.0234">UUID id</text><ellipse cx="61.5" cy="580.7207" fill="none" rx="3" ry="3" style="stroke:#038048;stroke-width:1.0;"/><text fill="#000000" font-family="sans-serif" font-size="14" lengthAdjust="spacing" textLength="65.2627" x="70.5" y="584.5117">Date date</text><ellipse cx="61.5" cy="597.209" fill="none" rx="3" ry="3" style="stroke:#038048;stroke-width:1.0;"/><text fill="#000000" font-family="sans-serif" font-size="14" lengthAdjust="spacing" textLength="75.0176" x="70.5" y="601">UUID tripId</text><line style="stroke:#181818;stroke-width:0.5;" x1="51.5" x2="150.5176" y1="607.9531" y2="607.9531"/></g><!--class Activity--><g id="elem_Activity"><rect codeLine="18" fill="#F1F1F1" height="179.9063" id="Activity" rx="2.5" ry="2.5" style="stroke:#181818;stroke-width:0.5;" width="189.6318" x="6" y="670.4883"/><ellipse cx="71.5874" cy="686.4883" fill="#ADD1B2" rx="11" ry="11" style="stroke:#181818;stroke-width:1.0;"/><path d="M74.0605,692.6313 Q73.4795,692.9302 72.8403,693.0796 Q72.2012,693.229 71.4956,693.229 Q68.9888,693.229 67.6689,691.5771 Q66.3491,689.9253 66.3491,686.8042 Q66.3491,683.6748 67.6689,682.0229 Q68.9888,680.3711 71.4956,680.3711 Q72.2012,680.3711 72.8486,680.5205 Q73.4961,680.6699 74.0605,680.9688 L74.0605,683.6914 Q73.4297,683.1104 72.8362,682.8406 Q72.2427,682.5708 71.6118,682.5708 Q70.2671,682.5708 69.5823,683.6375 Q68.8975,684.7041 68.8975,686.8042 Q68.8975,688.896 69.5823,689.9626 Q70.2671,691.0293 71.6118,691.0293 Q72.2427,691.0293 72.8362,690.7595 Q73.4297,690.4897 74.0605,689.9087 Z " fill="#000000"/><text fill="#000000" font-family="sans-serif" font-size="14" lengthAdjust="spacing" textLength="49.957" x="92.0874" y="691.7793">Activity</text><line style="stroke:#181818;stroke-width:0.5;" x1="7" x2="194.6318" y1="702.4883" y2="702.4883"/><ellipse cx="17" cy="716.2324" fill="none" rx="3" ry="3" style="stroke:#038048;stroke-width:1.0;"/><text fill="#000000" font-family="sans-serif" font-size="14" lengthAdjust="spacing" textLength="51.208" x="26" y="720.0234">UUID id</text><ellipse cx="17" cy="732.7207" fill="none" rx="3" ry="3" style="stroke:#038048;stroke-width:1.0;"/><text fill="#000000" font-family="sans-serif" font-size="14" lengthAdjust="spacing" textLength="70.7656" x="26" y="736.5117">String title</text><ellipse cx="17" cy="749.209" fill="none" rx="3" ry="3" style="stroke:#038048;stroke-width:1.0;"/><text fill="#000000" font-family="sans-serif" font-size="14" lengthAdjust="spacing" textLength="120.4766" x="26" y="753">String description</text><ellipse cx="17" cy="765.6973" fill="none" rx="3" ry="3" style="stroke:#038048;stroke-width:1.0;"/><text fill="#000000" font-family="sans-serif" font-size="14" lengthAdjust="spacing" textLength="163.6318" x="26" y="769.4883">Integer durationMinutes</text><ellipse cx="17" cy="782.1855" fill="none" rx="3" ry="3" style="stroke:#038048;stroke-width:1.0;"/><text fill="#000000" font-family="sans-serif" font-size="14" lengthAdjust="spacing" textLength="140.458" x="26" y="785.9766">TimeBlock timeBlock</text><ellipse cx="17" cy="798.6738" fill="none" rx="3" ry="3" style="stroke:#038048;stroke-width:1.0;"/><text fill="#000000" font-family="sans-serif" font-size="14" lengthAdjust="spacing" textLength="75.0518" x="26" y="802.4648">UUID dayId</text><ellipse cx="17" cy="815.1621" fill="none" rx="3" ry="3" style="stroke:#038048;stroke-width:1.0;"/><text fill="#000000" font-family="sans-serif" font-size="14" lengthAdjust="spacing" textLength="151.3682" x="26" y="818.9531">Set&lt;ActivityTag&gt; tags</text><ellipse cx="17" cy="831.6504" fill="none" rx="3" ry="3" style="stroke:#038048;stroke-width:1.0;"/><text fill="#000000" font-family="sans-serif" font-size="14" lengthAdjust="spacing" textLength="119.499" x="26" y="835.4414">Boolean? isIndoor</text><line style="stroke:#181818;stroke-width:0.5;" x1="7" x2="194.6318" y1="842.3945" y2="842.3945"/></g><!--class TimeBlock--><g id="elem_TimeBlock"><rect codeLine="29" fill="#F1F1F1" height="130.4414" id="TimeBlock" rx="2.5" ry="2.5" style="stroke:#181818;stroke-width:0.5;" width="101.8223" x="207" y="98.9883"/><ellipse cx="222" cy="114.9883" fill="#EB937F" rx="11" ry="11" style="stroke:#181818;stroke-width:1.0;"/><path d="M225.6143,121.4883 L217.8945,121.4883 L217.8945,109.0952 L225.6143,109.0952 L225.6143,111.2534 L220.3433,111.2534 L220.3433,113.9263 L225.1162,113.9263 L225.1162,116.0845 L220.3433,116.0845 L220.3433,119.3301 L225.6143,119.3301 Z " fill="#000000"/><text fill="#000000" font-family="sans-serif" font-size="14" lengthAdjust="spacing" textLength="69.8223" x="236" y="120.2793">TimeBlock</text><line style="stroke:#181818;stroke-width:0.5;" x1="208" x2="307.8223" y1="130.9883" y2="130.9883"/><text fill="#000000" font-family="sans-serif" font-size="14" lengthAdjust="spacing" textLength="66.623" x="213" y="148.5234">MORNING</text><text fill="#000000" font-family="sans-serif" font-size="14" lengthAdjust="spacing" textLength="42.4375" x="213" y="165.0117">NOON</text><text fill="#000000" font-family="sans-serif" font-size="14" lengthAdjust="spacing" textLength="84.8955" x="213" y="181.5">AFTERNOON</text><text fill="#000000" font-family="sans-serif" font-size="14" lengthAdjust="spacing" textLength="59.165" x="213" y="197.9883">EVENING</text><text fill="#000000" font-family="sans-serif" font-size="14" lengthAdjust="spacing" textLength="43.6338" x="213" y="214.4766">NIGHT</text><line style="stroke:#181818;stroke-width:0.5;" x1="208" x2="307.8223" y1="221.4297" y2="221.4297"/></g><!--class ActivityTag--><g id="elem_ActivityTag"><rect codeLine="37" fill="#F1F1F1" height="229.3711" id="ActivityTag" rx="2.5" ry="2.5" style="stroke:#181818;stroke-width:0.5;" width="133.4404" x="327.5" y="49.4883"/><ellipse cx="354.2765" cy="65.4883" fill="#EB937F" rx="11" ry="11" style="stroke:#181818;stroke-width:1.0;"/><path d="M357.8907,71.9883 L350.171,71.9883 L350.171,59.5952 L357.8907,59.5952 L357.8907,61.7534 L352.6197,61.7534 L352.6197,64.4263 L357.3927,64.4263 L357.3927,66.5845 L352.6197,66.5845 L352.6197,69.8301 L357.8907,69.8301 Z " fill="#000000"/><text fill="#000000" font-family="sans-serif" font-size="14" lengthAdjust="spacing" textLength="75.2705" x="370.8935" y="70.7793">ActivityTag</text><line style="stroke:#181818;stroke-width:0.5;" x1="328.5" x2="459.9404" y1="81.4883" y2="81.4883"/><text fill="#000000" font-family="sans-serif" font-size="14" lengthAdjust="spacing" textLength="70.5195" x="333.5" y="99.0234">OUTDOOR</text><text fill="#000000" font-family="sans-serif" font-size="14" lengthAdjust="spacing" textLength="55.4668" x="333.5" y="115.5117">INDOOR</text><text fill="#000000" font-family="sans-serif" font-size="14" lengthAdjust="spacing" textLength="71.3809" x="333.5" y="132">CULTURAL</text><text fill="#000000" font-family="sans-serif" font-size="14" lengthAdjust="spacing" textLength="52.582" x="333.5" y="148.4883">SPORTY</text><text fill="#000000" font-family="sans-serif" font-size="14" lengthAdjust="spacing" textLength="66.8213" x="333.5" y="164.9766">RELAXING</text><text fill="#000000" font-family="sans-serif" font-size="14" lengthAdjust="spacing" textLength="102.751" x="333.5" y="181.4648">ADVENTUROUS</text><text fill="#000000" font-family="sans-serif" font-size="14" lengthAdjust="spacing" textLength="39.7441" x="333.5" y="197.9531">FOOD</text><text fill="#000000" font-family="sans-serif" font-size="14" lengthAdjust="spacing" textLength="68.6738" x="333.5" y="214.4414">SHOPPING</text><text fill="#000000" font-family="sans-serif" font-size="14" lengthAdjust="spacing" textLength="114.9531" x="333.5" y="230.9297">ENTERTAINMENT</text><text fill="#000000" font-family="sans-serif" font-size="14" lengthAdjust="spacing" textLength="121.4404" x="333.5" y="247.418">FAMILY_FRIENDLY</text><text fill="#000000" font-family="sans-serif" font-size="14" lengthAdjust="spacing" textLength="43.8252" x="333.5" y="263.9063">PARTY</text><line style="stroke:#181818;stroke-width:0.5;" x1="328.5" x2="459.9404" y1="270.8594" y2="270.8594"/></g><!--class Traveler--><g id="elem_Traveler"><rect codeLine="51" fill="#F1F1F1" height="130.4414" id="Traveler" rx="2.5" ry="2.5" style="stroke:#181818;stroke-width:0.5;" width="174.8936" x="13.5" y="98.9883"/><ellipse cx="69.23" cy="114.9883" fill="#ADD1B2" rx="11" ry="11" style="stroke:#181818;stroke-width:1.0;"/><path d="M71.7031,121.1313 Q71.1221,121.4302 70.4829,121.5796 Q69.8438,121.729 69.1382,121.729 Q66.6313,121.729 65.3115,120.0771 Q63.9917,118.4253 63.9917,115.3042 Q63.9917,112.1748 65.3115,110.5229 Q66.6313,108.8711 69.1382,108.8711 Q69.8438,108.8711 70.4912,109.0205 Q71.1387,109.1699 71.7031,109.4688 L71.7031,112.1914 Q71.0723,111.6104 70.4788,111.3406 Q69.8853,111.0708 69.2544,111.0708 Q67.9097,111.0708 67.2249,112.1375 Q66.54,113.2041 66.54,115.3042 Q66.54,117.396 67.2249,118.4626 Q67.9097,119.5293 69.2544,119.5293 Q69.8853,119.5293 70.4788,119.2595 Q71.0723,118.9897 71.7031,118.4087 Z " fill="#000000"/><text fill="#000000" font-family="sans-serif" font-size="14" lengthAdjust="spacing" textLength="54.9336" x="89.73" y="120.2793">Traveler</text><line style="stroke:#181818;stroke-width:0.5;" x1="14.5" x2="187.3936" y1="130.9883" y2="130.9883"/><ellipse cx="24.5" cy="144.7324" fill="none" rx="3" ry="3" style="stroke:#038048;stroke-width:1.0;"/><text fill="#000000" font-family="sans-serif" font-size="14" lengthAdjust="spacing" textLength="51.208" x="33.5" y="148.5234">UUID id</text><ellipse cx="24.5" cy="161.2207" fill="none" rx="3" ry="3" style="stroke:#038048;stroke-width:1.0;"/><text fill="#000000" font-family="sans-serif" font-size="14" lengthAdjust="spacing" textLength="87.001" x="33.5" y="165.0117">String? email</text><ellipse cx="24.5" cy="177.709" fill="none" rx="3" ry="3" style="stroke:#038048;stroke-width:1.0;"/><text fill="#000000" font-family="sans-serif" font-size="14" lengthAdjust="spacing" textLength="148.8936" x="33.5" y="181.5">String? passwordHash</text><ellipse cx="24.5" cy="194.1973" fill="none" rx="3" ry="3" style="stroke:#038048;stroke-width:1.0;"/><text fill="#000000" font-family="sans-serif" font-size="14" lengthAdjust="spacing" textLength="109.0879" x="33.5" y="197.9883">Boolean isDemo</text><ellipse cx="24.5" cy="210.6855" fill="none" rx="3" ry="3" style="stroke:#038048;stroke-width:1.0;"/><text fill="#000000" font-family="sans-serif" font-size="14" lengthAdjust="spacing" textLength="116.3545" x="33.5" y="214.4766">Instant createdAt</text><line style="stroke:#181818;stroke-width:0.5;" x1="14.5" x2="187.3936" y1="221.4297" y2="221.4297"/></g><polygon fill="#181818" points="101,333.1473,105,324.1473,101,328.1473,97,324.1473,101,333.1473" style="stroke:#181818;stroke-width:1.0;"/><path d="M101,229.1354 C101,261.5285 101,294.7271 101,327.1473 " fill="none" style="stroke:#181818;stroke-width:1.0;"/><text fill="#000000" font-family="sans-serif" font-size="13" lengthAdjust="spacing" textLength="32.6968" x="103" y="311.0566">owns</text><text fill="#000000" font-family="sans-serif" font-size="13" lengthAdjust="spacing" textLength="6.2651" x="94" y="329.7157">*</text><text fill="#000000" font-family="sans-serif" font-size="13" lengthAdjust="spacing" textLength="8.2202" x="92" y="242.7037">1</text><polygon fill="#181818" points="101,518.3126,105,509.3126,101,513.3126,97,509.3126,101,518.3126" style="stroke:#181818;stroke-width:1.0;"/><path d="M101,463.8615 C101,481.9805 101,495.3588 101,512.3126 " fill="none" style="stroke:#181818;stroke-width:1.0;"/><text fill="#000000" font-family="sans-serif" font-size="13" lengthAdjust="spacing" textLength="53.2061" x="103" y="496.0566">contains</text><text fill="#000000" font-family="sans-serif" font-size="13" lengthAdjust="spacing" textLength="6.2651" x="94" y="514.881">*</text><text fill="#000000" font-family="sans-serif" font-size="13" lengthAdjust="spacing" textLength="8.2202" x="92" y="477.4299">1</text><polygon fill="#181818" points="101,670.1301,105,661.1301,101,665.1301,97,661.1301,101,670.1301" style="stroke:#181818;stroke-width:1.0;"/><path d="M101,615.8178 C101,632.3245 101,645.3913 101,664.1301 " fill="none" style="stroke:#181818;stroke-width:1.0;"/><text fill="#000000" font-family="sans-serif" font-size="13" lengthAdjust="spacing" textLength="53.2061" x="103" y="648.0566">contains</text><text fill="#000000" font-family="sans-serif" font-size="13" lengthAdjust="spacing" textLength="6.2651" x="94" y="666.6984">*</text><text fill="#000000" font-family="sans-serif" font-size="13" lengthAdjust="spacing" textLength="8.2202" x="92" y="629.3862">1</text><!--SRC=[TL9DRzim3BtxLt0vTiXXrs9euTPE8y2n0aSUsbF1MO8dp9O2MKaH3Ftle_mL5-jEVkGZtwCfVZawh5k41Y_svA5hbKU3aTU-KI2SFWhKZNMmXiS6kmuIZRN3DeggFWmLy2S2-5gMB04j0pnufqqDKdLU6_JQcf1Dq2leF3eVq9nHHaxns7VMFrNqFZaaUFd7e6-KOrUVfyuZazUkkFBwhFtbVxFr__TnreeafbcPyQfM3kJ9zVFlj3bvrGLAw5OzDBRwJHeZcYqaNjZWelptQGI1zHruhFlk1siRXUOUTCUCjDQ5aPKvjN3L3IFlU96p_8bGpdbEdtWZqcB4wOzq8jdJLimI2yTUX9SYuRmWnF8HF9QPA8iu8tZOyqAy42ZIB7uUzEA4fAc0bmUADfmdeN3Bz_k19p8jHCpo7Q5G4UzOzlAwALYQ9raGsyT1zFrw7tXM3MtoytUu1zNIVIqJHsfxiqvkiVkrs1WjB56j7Hw7hiXug9oY4v2n3tQpqUhR2jRhErZTh8Rhl0NxPhgenqio7DOjLDPurCI7S4dF5xIe-Gi0]--></g></svg>
