<svg xmlns="http://www.w3.org/2000/svg" xmlns:xlink="http://www.w3.org/1999/xlink" contentStyleType="text/css" data-diagram-type="DESCRIPTION" height="543px" preserveAspectRatio="none" style="width:1860px;height:543px;background:#FFFFFF;" version="1.1" viewBox="0 0 1860 543" width="1860px" zoomAndPan="magnify"><title>TripTailor - Subsystem Decomposition</title><defs/><g><g class="title" data-source-line="2"><text fill="#000000" font-family="Arial" font-size="14" font-weight="bold" lengthAdjust="spacing" textLength="256.7031" x="789.1484" y="23.1318">TripTailor - Subsystem Decomposition</text></g><!--cluster TripTailor System--><g class="cluster" data-entity="TripTailor System" data-source-line="33" data-uid="ent0003" id="cluster_TripTailor System"><rect fill="#F8FAFC" height="252" rx="5" ry="5" style="stroke:#64748B;stroke-width:1;" width="1362.5" x="14" y="133.0986"/><text fill="#000000" font-family="Arial" font-size="14" font-weight="bold" lengthAdjust="spacing" textLength="118.2549" x="636.1226" y="148.2305">TripTailor System</text></g><!--cluster Observability--><g class="cluster" data-entity="Observability" data-source-line="42" data-uid="ent0011" id="cluster_Observability"><rect fill="#F8FAFC" height="157" rx="5" ry="5" style="stroke:#64748B;stroke-width:1;" width="395" x="22" y="220.0986"/><text fill="#000000" font-family="Arial" font-size="14" font-weight="bold" lengthAdjust="spacing" textLength="88.7031" x="175.1484" y="235.2305">Observability</text></g><!--entity Traveler--><g class="entity" data-entity="Traveler" data-source-line="31" data-uid="ent0002" id="entity_Traveler"><ellipse cx="65.6724" cy="57.5986" fill="#F1F1F1" rx="8" ry="8" style="stroke:#181818;stroke-width:0.5;"/><path d="M65.6724,65.5986 L65.6724,92.5986 M52.6724,73.5986 L78.6724,73.5986 M65.6724,92.5986 L52.6724,107.5986 M65.6724,92.5986 L78.6724,107.5986" fill="none" style="stroke:#181818;stroke-width:0.5;"/><text fill="#000000" font-family="Arial" font-size="14" lengthAdjust="spacing" textLength="51.3447" x="40" y="122.2305">Traveler</text></g><!--entity LLM--><g class="entity" data-entity="LLM" data-source-line="49" data-uid="ent0015" id="entity_LLM"><path d="M1185.1745,403.0875 C1189.1325,395.9403 1196.3381,395.6339 1200.6831,402.6641 C1204.3666,395.889 1209.9912,395.4874 1214.0853,402.2578 C1217.9339,394.5978 1224.7892,395.7213 1228.5712,402.3255 C1232.576,394.6017 1240.4715,394.6397 1245.1665,401.5424 C1249.7975,395.5583 1254.2475,394.9319 1259.3414,400.9981 C1263.4436,394.1873 1268.9004,392.7348 1273.9334,400.0357 C1279.1557,392.8939 1283.3018,393.748 1287.7913,400.7535 C1292.0668,393.2554 1299.8063,394.263 1303.6108,401.2674 C1308.2919,393.7108 1313.2288,395.5705 1317.7828,401.4019 C1322.7157,394.6359 1328.6281,393.6248 1332.9247,402.0368 C1336.1977,394.8288 1343.1817,393.8665 1347.7407,400.6778 C1353.6371,394.0896 1358.8796,393.8132 1364.187,401.3629 C1368.5539,396.0931 1374.5015,397.2381 1377.1973,403.2842 C1382.392,395.9162 1388.3164,396.2371 1392.9736,403.8502 C1406.8326,404.8328 1411.1106,415.7743 1403.6744,426.7206 C1409.9966,439.2721 1407.2997,447.8754 1392.1505,449.6228 C1388.3744,455.7256 1383.4984,455.9991 1378.8452,450.6412 C1375.2237,459.191 1369.0903,458.6107 1363.5796,452.6254 C1359.4264,459.795 1354.905,462.185 1348.6506,454.7773 C1343.7835,462.5122 1337.2634,462.5597 1333.0301,454.1634 C1330.615,460.7243 1324.073,462.3886 1319.6112,456.3417 C1316.695,464.4452 1310.805,466.6847 1304.613,459.5701 C1300.1929,468.2655 1294.5394,468.7496 1288.3035,461.4179 C1282.7635,467.2557 1276.8174,466.8336 1274.086,458.5834 C1269.2084,464.9159 1263.8298,464.8698 1259.9434,457.556 C1253.6499,463.6624 1248.1039,463.8025 1244.2753,454.9707 C1239.8354,460.9553 1233.4494,460.9076 1229.8741,454.0045 C1224.3991,461.0536 1216.5231,459.6094 1213.9486,451.0458 C1208.8687,457.64 1202.9645,457.7898 1198.5931,450.2747 C1193.7041,457.3297 1187.1331,456.0871 1184.2939,448.2999 C1170.7127,445.722 1166.7785,437.9802 1175.7987,426.5674 C1167.4223,415.0649 1170.2228,405.2748 1185.1745,403.0875" fill="#FFF7ED" style="stroke:#EA580C;stroke-width:0.5;"/><text fill="#0F172A" font-family="Arial" font-size="14" lengthAdjust="spacing" textLength="99.6133" x="1237.4756" y="421.2305">Configured LLM</text><text fill="#0F172A" font-family="Arial" font-size="14" lengthAdjust="spacing" textLength="194.5645" x="1190" y="437.3291">Azure OpenAI or local endpoint</text></g><!--entity Providers--><g class="entity" data-entity="Providers" data-source-line="50" data-uid="ent0016" id="entity_Providers"><path d="M1628.1484,235.9455 C1632.3392,228.3951 1638.2829,227.0901 1644.4793,233.6192 C1647.0926,226.1938 1653.0409,224.0191 1658.993,230.0064 C1663.6202,224.2817 1669.3359,224.7502 1673.0058,231.1159 C1676.0938,222.9331 1680.7078,220.9676 1687.3882,227.637 C1691.0688,222.116 1697.1734,221.6541 1700.9665,227.5027 C1704.0085,219.5986 1709.058,217.585 1715.6693,223.7809 C1718.8636,217.033 1726.0438,214.9993 1730.4896,222.477 C1735.2347,216.4743 1740.2036,218.35 1743.0897,224.4176 C1748.6779,216.63 1755.6349,218.6938 1759.2395,226.4752 C1764.403,221.3609 1771.1842,220.9612 1773.4228,229.5112 C1777.6732,223.1206 1782.2896,223.3607 1786.8662,229.1511 C1793.8711,222.9086 1798.9742,223.2617 1802.4668,232.6554 C1806.5259,225.3504 1811.0742,226.2484 1816.0818,231.6381 C1825.9368,224.2102 1834.6349,227.2369 1835.7715,240.0986 C1836.9313,240.314 1837.2927,241.306 1836.3799,242.1393 C1847.1555,246.6724 1847.3153,253.2626 1839.67,261.0077 C1849.8115,265.828 1853.9459,272.4877 1844.7844,282.0088 C1853.4954,290.1075 1852.9477,298.5424 1840.824,302.642 C1846.8637,315.7369 1845.2919,325.395 1828.7715,327.5918 C1829.3001,327.1194 1829.7309,327.1462 1830.0973,327.7854 C1825.8532,335.8425 1817.9996,335.3763 1813.4178,328.1541 C1809.9482,335.5787 1802.9129,337.3153 1797.498,330.2986 C1792.8001,339.9456 1783.8345,337.8813 1779.246,330.1835 C1775.9359,339.0087 1768.986,337.9997 1763.8467,332.0961 C1757.2326,340.3522 1750.7906,339.8626 1746.3591,329.9907 C1741.3084,339.5284 1735.1372,338.2454 1729.3875,330.6845 C1723.9143,337.5134 1717.8125,339.1736 1712.9623,330.0432 C1707.7202,337.5429 1702.3194,337.9623 1696.7704,330.3725 C1691.4297,338.3113 1684.4646,337.6097 1680.6235,328.9166 C1676.4224,339.2159 1669.5546,337.8235 1663.1437,331.1992 C1657.1052,338.0377 1650.6698,338.6478 1646.6497,329.1602 C1635.0609,338.4169 1624.9937,334.0711 1621,320.5918 C1622.3069,320.9334 1622.493,321.7991 1621.8119,322.8541 C1611.0523,316.8139 1611.3333,308.4129 1619.7076,300.5661 C1609.8685,297.9014 1607.8831,288.3046 1614.6251,281.2721 C1605.2371,274.0224 1606.6992,265.1857 1617.4473,260.6981 C1609.781,246.9675 1609.6707,236.8899 1628,233.0986 C1629.328,233.9099 1629.2822,235.0059 1628.1484,235.9455" fill="#FFF7ED" style="stroke:#EA580C;stroke-width:0.5;"/><text fill="#0F172A" font-family="Arial" font-size="14" lengthAdjust="spacing" textLength="135.3789" x="1660.6963" y="253.2305">Travel Data Providers</text><text fill="#0F172A" font-family="Arial" font-size="14" lengthAdjust="spacing" textLength="200.7715" x="1628" y="269.3291">Nominatim / Photon (geocoding)</text><text fill="#0F172A" font-family="Arial" font-size="14" lengthAdjust="spacing" textLength="140.0479" x="1658.3618" y="285.4277">Overpass API (places)</text><text fill="#0F172A" font-family="Arial" font-size="14" lengthAdjust="spacing" textLength="104.2686" x="1676.2515" y="301.5264">SerpApi (events)</text><text fill="#0F172A" font-family="Arial" font-size="14" lengthAdjust="spacing" textLength="140.8408" x="1657.9653" y="317.625">Open-Meteo (weather)</text></g><!--entity Gateway--><g class="entity" data-entity="Gateway" data-source-line="34" data-uid="ent0004" id="entity_Gateway"><rect fill="#EFF6FF" height="52.1973" rx="5" ry="5" style="stroke:#2563EB;stroke-width:0.5;" width="75.248" x="275" y="160.0986"/><text fill="#0F172A" font-family="Arial" font-size="14" lengthAdjust="spacing" textLength="55.248" x="285" y="183.2305">Gateway</text><text fill="#0F172A" font-family="Arial" font-size="14" lengthAdjust="spacing" textLength="44.3379" x="290.4551" y="199.3291">NGINX</text></g><!--entity Frontend--><g class="entity" data-entity="Frontend" data-source-line="35" data-uid="ent0005" id="entity_Frontend"><rect fill="#EFF6FF" height="52.1973" rx="5" ry="5" style="stroke:#2563EB;stroke-width:0.5;" width="108.71" x="548" y="167.0986"/><text fill="#0F172A" font-family="Arial" font-size="14" lengthAdjust="spacing" textLength="68.4688" x="568.1206" y="190.2305">Web Client</text><text fill="#0F172A" font-family="Arial" font-size="14" lengthAdjust="spacing" textLength="88.71" x="558" y="206.3291">React / Refine</text></g><!--entity Backend--><g class="entity" data-entity="Backend" data-source-line="36" data-uid="ent0006" id="entity_Backend"><rect fill="#EFF6FF" height="52.1973" rx="5" ry="5" style="stroke:#2563EB;stroke-width:0.5;" width="114.9443" x="545" y="254.0986"/><text fill="#0F172A" font-family="Arial" font-size="14" lengthAdjust="spacing" textLength="94.9443" x="555" y="277.2305">Application API</text><text fill="#0F172A" font-family="Arial" font-size="14" lengthAdjust="spacing" textLength="73.1582" x="565.8931" y="293.3291">Spring Boot</text></g><!--entity Persistence--><g class="entity" data-entity="Persistence" data-source-line="37" data-uid="ent0007" id="entity_Persistence"><rect fill="#EFF6FF" height="52.1973" rx="5" ry="5" style="stroke:#2563EB;stroke-width:0.5;" width="143.7168" x="856" y="324.0986"/><text fill="#0F172A" font-family="Arial" font-size="14" lengthAdjust="spacing" textLength="123.7168" x="866" y="347.2305">Persistence Service</text><text fill="#0F172A" font-family="Arial" font-size="14" lengthAdjust="spacing" textLength="73.1582" x="891.2793" y="363.3291">Spring Boot</text></g><!--entity GenAI--><g class="entity" data-entity="GenAI" data-source-line="38" data-uid="ent0008" id="entity_GenAI"><rect fill="#EFF6FF" height="52.1973" rx="5" ry="5" style="stroke:#2563EB;stroke-width:0.5;" width="110.2617" x="873" y="254.0986"/><text fill="#0F172A" font-family="Arial" font-size="14" lengthAdjust="spacing" textLength="90.2617" x="883" y="277.2305">GenAI Service</text><text fill="#0F172A" font-family="Arial" font-size="14" lengthAdjust="spacing" textLength="49.793" x="903.2344" y="293.3291">FastAPI</text></g><!--entity Context--><g class="entity" data-entity="Context" data-source-line="39" data-uid="ent0009" id="entity_Context"><rect fill="#EFF6FF" height="52.1973" rx="5" ry="5" style="stroke:#2563EB;stroke-width:0.5;" width="161.6064" x="1206.5" y="254.0986"/><text fill="#0F172A" font-family="Arial" font-size="14" lengthAdjust="spacing" textLength="141.6064" x="1216.5" y="277.2305">Travel Context Service</text><text fill="#0F172A" font-family="Arial" font-size="14" lengthAdjust="spacing" textLength="49.793" x="1262.4067" y="293.3291">FastAPI</text></g><!--entity Database--><g class="entity" data-entity="Database" data-source-line="40" data-uid="ent0010" id="entity_Database"><path d="M1239.5,337.5986 C1239.5,327.5986 1287.6309,327.5986 1287.6309,327.5986 C1287.6309,327.5986 1335.7617,327.5986 1335.7617,337.5986 L1335.7617,362.6973 C1335.7617,372.6973 1287.6309,372.6973 1287.6309,372.6973 C1287.6309,372.6973 1239.5,372.6973 1239.5,362.6973 L1239.5,337.5986" fill="#F0FDF4" style="stroke:#16A34A;stroke-width:0.5;"/><path d="M1239.5,337.5986 C1239.5,347.5986 1287.6309,347.5986 1287.6309,347.5986 C1287.6309,347.5986 1335.7617,347.5986 1335.7617,337.5986" fill="none" style="stroke:#16A34A;stroke-width:0.5;"/><text fill="#0F172A" font-family="Arial" font-size="14" lengthAdjust="spacing" textLength="76.2617" x="1249.5" y="364.7305">PostgreSQL</text></g><!--entity Prometheus--><g class="entity" data-entity="Prometheus" data-source-line="43" data-uid="ent0012" id="entity_Prometheus"><rect fill="#EFF6FF" height="52.1973" rx="5" ry="5" style="stroke:#2563EB;stroke-width:0.5;" width="192.7236" x="216" y="247.0986"/><text fill="#0F172A" font-family="Arial" font-size="14" lengthAdjust="spacing" textLength="75.4824" x="274.6206" y="270.2305">Prometheus</text><text fill="#0F172A" font-family="Arial" font-size="14" lengthAdjust="spacing" textLength="172.7236" x="226" y="286.3291">scrapes all runtime services</text></g><!--entity Grafana--><g class="entity" data-entity="Grafana" data-source-line="44" data-uid="ent0013" id="entity_Grafana"><rect fill="#EFF6FF" height="36.0986" rx="5" ry="5" style="stroke:#2563EB;stroke-width:0.5;" width="70.5859" x="30" y="298.0986"/><text fill="#0F172A" font-family="Arial" font-size="14" lengthAdjust="spacing" textLength="50.5859" x="40" y="321.2305">Grafana</text></g><!--entity Tempo--><g class="entity" data-entity="Tempo" data-source-line="45" data-uid="ent0014" id="entity_Tempo"><rect fill="#EFF6FF" height="52.1973" rx="5" ry="5" style="stroke:#2563EB;stroke-width:0.5;" width="154.5996" x="235" y="317.0986"/><text fill="#0F172A" font-family="Arial" font-size="14" lengthAdjust="spacing" textLength="43.5723" x="290.5137" y="340.2305">Tempo</text><text fill="#0F172A" font-family="Arial" font-size="14" lengthAdjust="spacing" textLength="134.5996" x="245" y="356.3291">receives OTLP traces</text></g><g class="link" data-entity-1="Traveler" data-entity-2="Gateway" data-uid="lnk17" id="link_Traveler_Gateway"><polygon fill="#475569" points="274.7009,171.2288,267.855,164.1483,270.0651,169.3555,264.8578,171.5656,274.7009,171.2288" style="stroke:#475569;stroke-width:1;"/><path d="M91.3402,97.1361 C134.6485,114.6362 218.6065,148.5621 269.1379,168.9809" fill="none" style="stroke:#475569;stroke-width:1.2;"/><text fill="#000000" font-family="Arial" font-size="13" lengthAdjust="spacing" textLength="42.6118" x="137.5" y="105.2925">HTTPS</text></g><g class="link" data-entity-1="Gateway" data-entity-2="Frontend" data-uid="lnk18" id="link_Gateway_Frontend"><polygon fill="#475569" points="547.803,191.7935,538.9028,187.576,542.8045,191.672,538.7084,195.5736,547.803,191.7935" style="stroke:#475569;stroke-width:1;"/><path d="M350.2679,186.9923 C400.3101,188.2086 484.2135,190.2479 541.8047,191.6477" fill="none" style="stroke:#475569;stroke-width:1.2;"/><text fill="#000000" font-family="Arial" font-size="13" lengthAdjust="spacing" textLength="8.6709" x="472.7195" y="170.2925">/*</text><text fill="#000000" font-family="Arial" font-size="13" lengthAdjust="spacing" textLength="96.1099" x="429" y="185.2412">static application</text></g><g class="link" data-entity-1="Gateway" data-entity-2="Backend" data-uid="lnk19" id="link_Gateway_Backend"><polygon fill="#475569" points="544.9739,272.8065,536.8659,267.2155,540.0597,271.8845,535.3907,275.0783,544.9739,272.8065" style="stroke:#475569;stroke-width:1;"/><path d="M350.4129,190.9782 C371.3422,195.1048 397.2172,202.6048 417,216.0986 C423.0219,220.2062 420.9826,224.9844 427,229.0986 C462.1737,253.1479 502.88,264.909 539.0768,271.7001" fill="none" style="stroke:#475569;stroke-width:1.2;"/><text fill="#000000" font-family="Arial" font-size="13" lengthAdjust="spacing" textLength="29.6309" x="462.6318" y="210.2925">/api/*</text><text fill="#000000" font-family="Arial" font-size="13" lengthAdjust="spacing" textLength="80.8945" x="437" y="225.2412">JSON/HTTPS</text></g><g class="link" data-entity-1="Backend" data-entity-2="Persistence" data-uid="lnk20" id="link_Backend_Persistence"><polygon fill="#475569" points="855.7679,338.2547,847.5946,332.7595,850.8432,337.3906,846.2121,340.6392,855.7679,338.2547" style="stroke:#475569;stroke-width:1;"/><path d="M660.2922,297.4848 C666.25,299.1241 672.2345,300.6951 678,302.0986 C737.4584,316.5728 799.848,328.4431 849.8582,337.2178" fill="none" style="stroke:#475569;stroke-width:1.2;"/><text fill="#000000" font-family="Arial" font-size="13" lengthAdjust="spacing" textLength="107.6309" x="704.5" y="298.2925">Traveler/trip REST</text></g><g class="link" data-entity-1="Backend" data-entity-2="GenAI" data-uid="lnk21" id="link_Backend_GenAI"><polygon fill="#475569" points="872.7718,280.0986,863.7718,276.0986,867.7718,280.0986,863.7718,284.0986,872.7718,280.0986" style="stroke:#475569;stroke-width:1;"/><path d="M660.2196,280.0986 C720.1088,280.0986 807.8422,280.0986 866.7718,280.0986" fill="none" style="stroke:#475569;stroke-width:1.2;"/><text fill="#000000" font-family="Arial" font-size="13" lengthAdjust="spacing" textLength="156.0825" x="680" y="276.2925">Schedule/alternative REST</text></g><g class="link" data-entity-1="Persistence" data-entity-2="Database" data-uid="lnk22" id="link_Persistence_Database"><polygon fill="#475569" points="1239.4983,350.0986,1230.4983,346.0986,1234.4983,350.0986,1230.4983,354.0986,1239.4983,350.0986" style="stroke:#475569;stroke-width:1;"/><path d="M1000.0579,350.0986 C1071.1243,350.0986 1172.3979,350.0986 1233.4983,350.0986" fill="none" style="stroke:#475569;stroke-width:1.2;"/><text fill="#000000" font-family="Arial" font-size="13" lengthAdjust="spacing" textLength="63.5718" x="1056" y="346.2925">JDBC/SQL</text></g><g class="link" data-entity-1="GenAI" data-entity-2="LLM" data-uid="lnk23" id="link_GenAI_LLM"><polygon fill="#475569" points="1174.9271,435.7945,1165.9678,431.7041,1169.9273,435.7442,1165.8873,439.7037,1174.9271,435.7945" style="stroke:#475569;stroke-width:1;"/><path d="M983.1514,300.2957 C989.487,304.4267 995.3401,309.323 1000,315.0986 C1020.7121,340.7698 993.4509,365.0682 1018,387.0986 C1059.9376,424.7336 1115.3919,435.1949 1168.9274,435.7341" fill="none" style="stroke:#475569;stroke-width:1.2;"/><text fill="#000000" font-family="Arial" font-size="13" lengthAdjust="spacing" textLength="135.8462" x="1020" y="368.2925">OpenAI-compatible API</text><text fill="#000000" font-family="Arial" font-size="13" lengthAdjust="spacing" textLength="122.8525" x="1026.4968" y="383.2412">structured generation</text></g><g class="link" data-entity-1="GenAI" data-entity-2="Context" data-uid="lnk24" id="link_GenAI_Context"><polygon fill="#475569" points="1206.437,280.0986,1197.437,276.0986,1201.437,280.0986,1197.437,284.0986,1206.437,280.0986" style="stroke:#475569;stroke-width:1;"/><path d="M983.2966,280.0986 C1042.6772,280.0986 1132.4344,280.0986 1200.437,280.0986" fill="none" style="stroke:#475569;stroke-width:1.2;"/><text fill="#000000" font-family="Arial" font-size="13" lengthAdjust="spacing" textLength="84.5317" x="1045.5" y="276.2925">POST /context</text></g><g class="link" data-entity-1="Context" data-entity-2="Providers" data-uid="lnk25" id="link_Context_Providers"><polygon fill="#475569" points="1612.9199,280.0986,1603.9199,276.0986,1607.9199,280.0986,1603.9199,284.0986,1612.9199,280.0986" style="stroke:#475569;stroke-width:1;"/><path d="M1368.5089,280.0986 C1436.8901,280.0986 1530.1112,280.0986 1606.9199,280.0986" fill="none" style="stroke:#475569;stroke-width:1.2;"/><text fill="#000000" font-family="Arial" font-size="13" lengthAdjust="spacing" textLength="173.3735" x="1420" y="276.2925">Provider-specific HTTPS APIs</text></g><g class="link" data-entity-1="Prometheus" data-entity-2="Backend" data-uid="lnk26" id="link_Prometheus_Backend"><polygon fill="#475569" points="544.6273,278.7163,535.7272,274.4988,539.6288,278.5948,535.5328,282.4964,544.6273,278.7163" style="stroke:#475569;stroke-width:1;"/><path d="M409.3998,275.4295 C454.2349,276.5193 500.1002,277.6341 538.6291,278.5705" fill="none" style="stroke:#475569;stroke-width:1.2;stroke-dasharray:7,7;"/></g><g class="link" data-entity-1="Grafana" data-entity-2="Prometheus" data-uid="lnk27" id="link_Grafana_Prometheus"><polygon fill="#475569" points="215.739,286.3209,206.2382,283.7256,210.7963,287.0758,207.446,291.6339,215.739,286.3209" style="stroke:#475569;stroke-width:1;"/><path d="M101.1379,307.0638 C107.0763,305.6464 113.2007,304.2662 119,303.0986 C150.3345,296.7902 178.8351,291.9571 209.8078,287.2268" fill="none" style="stroke:#475569;stroke-width:1.2;"/><text fill="#000000" font-family="Arial" font-size="13" lengthAdjust="spacing" textLength="48.4009" x="134.5" y="285.2925">PromQL</text></g><g class="link" data-entity-1="Backend" data-entity-2="Tempo" data-uid="lnk28" id="link_Backend_Tempo"><polygon fill="#475569" points="390.3004,326.2985,399.9473,328.2829,395.1849,325.2301,398.2377,320.4677,390.3004,326.2985" style="stroke:#475569;stroke-width:1;"/><path d="M544.979,292.4626 C500.8087,302.1248 444.8185,314.3727 396.1618,325.0164" fill="none" style="stroke:#475569;stroke-width:1.2;stroke-dasharray:7,7;"/></g><g class="link" data-entity-1="Grafana" data-entity-2="Tempo" data-uid="lnk29" id="link_Grafana_Tempo"><polygon fill="#475569" points="234.964,334.6641,226.4563,329.7023,229.9941,334.1163,225.58,337.6541,234.964,334.6641" style="stroke:#475569;stroke-width:1;"/><path d="M101.0829,319.9098 C135.7075,323.7256 184.1739,329.0668 229.0001,334.0068" fill="none" style="stroke:#475569;stroke-width:1.2;"/><text fill="#000000" font-family="Arial" font-size="13" lengthAdjust="spacing" textLength="75.1499" x="121" y="317.2925">trace queries</text></g><g class="legend" data-source-line="68"><rect fill="none" height="62.2959" rx="5" ry="5" style="stroke:#000000;stroke-width:1;" width="426.2744" x="12" y="461.0986"/><text fill="#000000" font-family="Arial" font-size="14" font-weight="bold" lengthAdjust="spacing" textLength="60.6758" x="20.8896" y="481.2305">Direction</text><text fill="#000000" font-family="Arial" font-size="14" font-weight="bold" lengthAdjust="spacing" textLength="56.7793" x="106.4893" y="481.2305">Meaning</text><text fill="#000000" font-family="Arial" font-size="14" lengthAdjust="spacing" textLength="67.6895" x="20.8896" y="497.3291">solid arrow</text><text fill="#000000" font-family="Arial" font-size="14" lengthAdjust="spacing" textLength="173.5303" x="106.4893" y="497.3291">runtime request or data flow</text><text fill="#000000" font-family="Arial" font-size="14" lengthAdjust="spacing" textLength="77.8203" x="20.8896" y="513.4277">dotted arrow</text><text fill="#000000" font-family="Arial" font-size="14" lengthAdjust="spacing" textLength="322.8955" x="106.4893" y="513.4277">representative telemetry flow for all runtime services</text><line style="stroke:#000000;stroke-width:1;" x1="17" x2="433.2744" y1="468.0986" y2="468.0986"/><line style="stroke:#000000;stroke-width:1;" x1="17" x2="433.2744" y1="484.1973" y2="484.1973"/><line style="stroke:#000000;stroke-width:1;" x1="17" x2="433.2744" y1="500.2959" y2="500.2959"/><line style="stroke:#000000;stroke-width:1;" x1="17" x2="433.2744" y1="516.3945" y2="516.3945"/><line style="stroke:#000000;stroke-width:1;" x1="17" x2="17" y1="468.0986" y2="516.3945"/><line style="stroke:#000000;stroke-width:1;" x1="102.5996" x2="102.5996" y1="468.0986" y2="516.3945"/><line style="stroke:#000000;stroke-width:1;" x1="433.2744" x2="433.2744" y1="468.0986" y2="516.3945"/></g><!--SRC=[XLNRRjiu47tNLyowB-a2ZfFKST80Mq2-A4sHs6uaeFlW5reQoqGeKajIJhtR_liETN7aIr4_61Hdpk5Spf1_v9gb6GF1jggmO3AqJ3BFSYiG8itpY76XD7GXB9PcQoncCCPOPRaot78bFK_Woe9Le7cwjf1mZN5fC2zSvaop39OiVacrAcGoKexiNL3-MXvcpHBrocKAAoOCjYmrJ4lKS7dHCfGnI9Gsj5kArPtAP2hQs0HNh10sKD9EMORWQyx4iJt2xzONF9KPiK5CVwXRNhxMwhKEl7zpVJtuU6YCrZn-aMWCN9vVjOmvvSrI72gTeAuP1lsR_ktmXDDHZMu3FnYTIXZ-ym2E_2T1CA2QagLztDNruCDaIBkk2FNUHN1vS-LxFzkLO9OjcS7JrC55C0xwXzIN0_z3t_yjTInKaVo2DmXk9kD3teb_VNin-WMlns9B6v5c6nJK9c_NT-Yqv1gMIksKnxxLhNFFBBwoxK9Exn-cVtU06QYtzls-uH96WjDw8P-HZeGUFEEAIomnWQR8K2Rx83_F1O-PqpxuyuU537Fj53rKofOmb_yHQexQS0fMnWWXwWsFyHZPSZf82AN_y8OBcB5qT9MOC-rxLrM3aOl-kpqDguq4t6cYCrV6fXh3hu-boxWsUEJKAlziQOYGBRdWTbkLVZzJhUXsMMDX5jB4ckLeW0a1kf2MqtIQAXnJPRnpFgIvrsn5LrILOxK-T8cGbWj9iI7Vq2cpw74ELhE6lBGJwASJLANF3kMzuccXCO77nwU5zF-bDSpoii2aAA5Y9e3QboikgwwGNuEkA-iguqBVS98pfJbL6PUaY8pqCryhIyeuIr75Ag7slb_8sGPrpkZUeEh3MIvSXBHDZSdzdCCPRYWVj-FYw3wXHGLdhyYeCFfzKwVgCCzhPWAwtK-DhE4EFaVHFFIQRsThv4l6tf_K2qiHni3UvBldNQlMERESEy2NS3RjLRHUOtMURIdVxKQqPsaiuNaIHdlEbNBl88pNc1G2UqpGjUkAjS7Akqtd48ti2FHbF1prI8vUnUAir0moLFtgEYqGqv9aMKwYiRg8RTdS5EabgRFSWPk9k8FvB8oW5zT3qEoNsJMLTbxrkcjoZFcAgbUMmnr6ZNZJBfoVxmherM9jo1gNaYsZN9hgE4obq3QYt27dKiRmJu6Qet6FR-emxWqcGV_u2yRD- -i-df19Tv7yS3OmIl04c7knwAiPEur4PgpJk9juM0bdBW69iXPR2Cmr6b9arIHBtQKazBQ2h8ZWr3WJ5qLOnUdz3m00]--></g></svg>
