<svg xmlns="http://www.w3.org/2000/svg" xmlns:xlink="http://www.w3.org/1999/xlink" contentStyleType="text/css" data-diagram-type="DESCRIPTION" height="643px" preserveAspectRatio="none" style="width:880px;height:643px;background:#FFFFFF;" version="1.1" viewBox="0 0 880 643" width="880px" zoomAndPan="magnify"><title>TripTailor - Use Case Diagram</title><defs/><g><g class="title" data-source-line="2"><text fill="#000000" font-family="Arial" font-size="14" font-weight="bold" lengthAdjust="spacing" textLength="199.9512" x="336.5244" y="23.1318">TripTailor - Use Case Diagram</text></g><!--cluster TripTailor--><g class="cluster" data-entity="TripTailor" data-source-line="28" data-uid="ent0005" id="cluster_TripTailor"><rect fill="#F8FAFC" height="526" rx="5" ry="5" style="stroke:#64748B;stroke-width:1;" width="788" x="86" y="49.0986"/><text fill="#000000" font-family="Arial" font-size="14" font-weight="bold" lengthAdjust="spacing" textLength="64.5586" x="447.7207" y="64.2305">TripTailor</text></g><!--entity Traveler--><g class="entity" data-entity="Traveler" data-source-line="24" data-uid="ent0002" id="entity_Traveler"><ellipse cx="31.6724" cy="286.5986" fill="#F1F1F1" rx="8" ry="8" style="stroke:#0F172A;stroke-width:0.5;"/><path d="M31.6724,294.5986 L31.6724,321.5986 M18.6724,302.5986 L44.6724,302.5986 M31.6724,321.5986 L18.6724,336.5986 M31.6724,321.5986 L44.6724,336.5986" fill="none" style="stroke:#0F172A;stroke-width:0.5;"/><text fill="#0F172A" font-family="Arial" font-size="14" lengthAdjust="spacing" textLength="51.3447" x="6" y="351.2305">Traveler</text></g><!--entity LLM--><g class="entity" data-entity="LLM" data-source-line="25" data-uid="ent0003" id="entity_LLM"><rect fill="#FFF7ED" height="52.1973" rx="5" ry="5" style="stroke:#64748B;stroke-width:0.5;" width="103.2549" x="130" y="585.0986"/><text fill="#000000" font-family="Arial" font-size="14" lengthAdjust="spacing" textLength="46.6963" x="140" y="608.2305">&#171;actor&#187;</text><text fill="#000000" font-family="Arial" font-size="14" lengthAdjust="spacing" textLength="83.2549" x="140" y="624.3291">LLM Provider</text></g><!--entity Providers--><g class="entity" data-entity="Providers" data-source-line="26" data-uid="ent0004" id="entity_Providers"><rect fill="#FFF7ED" height="52.1973" rx="5" ry="5" style="stroke:#64748B;stroke-width:0.5;" width="155.3789" x="391.5" y="584.0986"/><text fill="#000000" font-family="Arial" font-size="14" lengthAdjust="spacing" textLength="46.6963" x="401.5" y="607.2305">&#171;actor&#187;</text><text fill="#000000" font-family="Arial" font-size="14" lengthAdjust="spacing" textLength="135.3789" x="401.5" y="623.3291">Travel Data Providers</text></g><!--entity Demo--><g class="entity" data-entity="Demo" data-source-line="29" data-uid="ent0006" id="entity_Demo"><ellipse cx="181.6792" cy="94.0345" fill="#EFF6FF" rx="75.1792" ry="17.4358" style="stroke:#2563EB;stroke-width:0.5;"/><text fill="#0F172A" font-family="Arial" font-size="14" lengthAdjust="spacing" textLength="119.834" x="121.7622" y="98.5838">Start demo session</text></g><!--entity Register--><g class="entity" data-entity="Register" data-source-line="30" data-uid="ent0007" id="entity_Register"><ellipse cx="181.6733" cy="146.3333" fill="#EFF6FF" rx="69.1733" ry="16.2347" style="stroke:#2563EB;stroke-width:0.5;"/><text fill="#0F172A" font-family="Arial" font-size="14" lengthAdjust="spacing" textLength="105.0547" x="129.146" y="150.8826">Register account</text></g><!--entity Login--><g class="entity" data-entity="Login" data-source-line="31" data-uid="ent0008" id="entity_Login"><ellipse cx="181.4723" cy="194.9821" fill="#EFF6FF" rx="29.9723" ry="14.3835" style="stroke:#2563EB;stroke-width:0.5;"/><text fill="#0F172A" font-family="Arial" font-size="14" lengthAdjust="spacing" textLength="38.1445" x="162.4" y="199.5314">Log in</text></g><!--entity Logout--><g class="entity" data-entity="Logout" data-source-line="32" data-uid="ent0009" id="entity_Logout"><ellipse cx="181.5289" cy="241.9821" fill="#EFF6FF" rx="36.0289" ry="14.3835" style="stroke:#2563EB;stroke-width:0.5;"/><text fill="#0F172A" font-family="Arial" font-size="14" lengthAdjust="spacing" textLength="46.71" x="158.1739" y="246.5314">Log out</text></g><!--entity ListTrips--><g class="entity" data-entity="ListTrips" data-source-line="33" data-uid="ent0010" id="entity_ListTrips"><ellipse cx="181.4404" cy="291.0867" fill="#EFF6FF" rx="67.9404" ry="15.9881" style="stroke:#2563EB;stroke-width:0.5;"/><text fill="#0F172A" font-family="Arial" font-size="14" lengthAdjust="spacing" textLength="101.9307" x="130.475" y="295.636">View saved trips</text></g><!--entity ViewTrip--><g class="entity" data-entity="ViewTrip" data-source-line="34" data-uid="ent0011" id="entity_ViewTrip"><ellipse cx="181.6802" cy="340.2347" fill="#EFF6FF" rx="61.1802" ry="14.636" style="stroke:#2563EB;stroke-width:0.5;"/><text fill="#0F172A" font-family="Arial" font-size="14" lengthAdjust="spacing" textLength="84.0273" x="139.6665" y="344.784">View itinerary</text></g><!--entity CreateTrip--><g class="entity" data-entity="CreateTrip" data-source-line="35" data-uid="ent0012" id="entity_CreateTrip"><ellipse cx="181.515" cy="393.0016" fill="#EFF6FF" rx="87.515" ry="19.903" style="stroke:#2563EB;stroke-width:0.5;"/><text fill="#0F172A" font-family="Arial" font-size="14" lengthAdjust="spacing" textLength="148.6338" x="107.1981" y="397.551">Create personalized trip</text></g><!--entity Generate--><g class="entity" data-entity="Generate" data-source-line="36" data-uid="ent0013" id="entity_Generate"><ellipse cx="469.1199" cy="477.2226" fill="#EFF6FF" rx="103.6199" ry="23.124" style="stroke:#2563EB;stroke-width:0.5;"/><text fill="#0F172A" font-family="Arial" font-size="14" lengthAdjust="spacing" textLength="184.4404" x="376.8996" y="481.7719">Generate structured schedule</text></g><!--entity Enrich--><g class="entity" data-entity="Enrich" data-source-line="37" data-uid="ent0014" id="entity_Enrich"><ellipse cx="767.2979" cy="528.1582" fill="#EFF6FF" rx="98.2979" ry="22.0596" style="stroke:#2563EB;stroke-width:0.5;"/><text fill="#0F172A" font-family="Arial" font-size="14" lengthAdjust="spacing" textLength="172.7646" x="680.9156" y="532.7075">Retrieve destination context</text></g><!--entity Regenerate--><g class="entity" data-entity="Regenerate" data-source-line="38" data-uid="ent0015" id="entity_Regenerate"><ellipse cx="181.3366" cy="450.8659" fill="#EFF6FF" rx="86.8366" ry="19.7673" style="stroke:#2563EB;stroke-width:0.5;"/><text fill="#0F172A" font-family="Arial" font-size="14" lengthAdjust="spacing" textLength="147.0889" x="107.7921" y="455.4153">Regenerate one activity</text></g><!--entity Alternative--><g class="entity" data-entity="Alternative" data-source-line="39" data-uid="ent0016" id="entity_Alternative"><ellipse cx="469.0534" cy="542.0093" fill="#EFF6FF" rx="105.0534" ry="23.4107" style="stroke:#2563EB;stroke-width:0.5;"/><text fill="#0F172A" font-family="Arial" font-size="14" lengthAdjust="spacing" textLength="187.5645" x="375.2712" y="546.5586">Suggest contextual alternative</text></g><!--entity DeleteActivity--><g class="entity" data-entity="DeleteActivity" data-source-line="40" data-uid="ent0017" id="entity_DeleteActivity"><ellipse cx="181.3155" cy="503.9617" fill="#EFF6FF" rx="62.3155" ry="14.8631" style="stroke:#2563EB;stroke-width:0.5;"/><text fill="#0F172A" font-family="Arial" font-size="14" lengthAdjust="spacing" textLength="87.1445" x="137.7432" y="508.5111">Delete activity</text></g><!--entity DeleteTrip--><g class="entity" data-entity="DeleteTrip" data-source-line="41" data-uid="ent0018" id="entity_DeleteTrip"><ellipse cx="181.6181" cy="551.9821" fill="#EFF6FF" rx="48.1181" ry="14.3835" style="stroke:#2563EB;stroke-width:0.5;"/><text fill="#0F172A" font-family="Arial" font-size="14" lengthAdjust="spacing" textLength="63.8066" x="149.7148" y="556.5314">Delete trip</text></g><g class="link" data-entity-1="Traveler" data-entity-2="Demo" data-uid="lnk19" id="link_Traveler_Demo"><path d="M32.3959,278.0651 C34.3804,234.3215 44.3938,163.1452 86,121.0986 C91.7607,115.2769 98.6834,110.6891 106.1299,107.0772" fill="none" style="stroke:#475569;stroke-width:1;"/></g><g class="link" data-entity-1="Traveler" data-entity-2="Register" data-uid="lnk20" id="link_Traveler_Register"><path d="M36.7624,277.9825 C42.4496,245.1176 55.6272,198.7192 86,171.0986 C93.5333,164.248 102.7263,159.2353 112.3874,155.5753" fill="none" style="stroke:#475569;stroke-width:1;"/></g><g class="link" data-entity-1="Traveler" data-entity-2="Login" data-uid="lnk21" id="link_Traveler_Login"><path d="M44.6905,277.9468 C53.1563,257.329 66.4757,233.0932 86,218.0986 C104.7482,203.7001 131.2529,198.1713 151.4234,196.1172" fill="none" style="stroke:#475569;stroke-width:1;"/></g><g class="link" data-entity-1="Traveler" data-entity-2="Logout" data-uid="lnk22" id="link_Traveler_Logout"><path d="M57.0595,288.2568 C65.5148,280.0931 75.5135,271.8295 86,266.0986 C104.27,256.1141 126.799,250.1836 145.2768,246.7165" fill="none" style="stroke:#475569;stroke-width:1;"/></g><g class="link" data-entity-1="Traveler" data-entity-2="ListTrips" data-uid="lnk23" id="link_Traveler_ListTrips"><path d="M57.2719,311.9142 C72.7422,309.301 93.466,305.8003 113.4993,302.4163" fill="none" style="stroke:#475569;stroke-width:1;"/></g><g class="link" data-entity-1="Traveler" data-entity-2="ViewTrip" data-uid="lnk24" id="link_Traveler_ViewTrip"><path d="M57.2719,320.1157 C74.5526,322.918 98.3881,326.7832 120.4944,330.368" fill="none" style="stroke:#475569;stroke-width:1;"/></g><g class="link" data-entity-1="Traveler" data-entity-2="CreateTrip" data-uid="lnk25" id="link_Traveler_CreateTrip"><path d="M57.1203,342.2521 C65.652,350.1507 75.6801,358.2649 86,364.0986 C91.8264,367.3923 98.0708,370.3555 104.4707,373.0124" fill="none" style="stroke:#475569;stroke-width:1;"/></g><g class="link" data-entity-1="Traveler" data-entity-2="Regenerate" data-uid="lnk26" id="link_Traveler_Regenerate"><path d="M43.3551,354.2685 C51.6244,376.9234 65.1984,404.5574 86,422.0986 C89.9358,425.4176 94.247,428.3569 98.7914,430.96" fill="none" style="stroke:#475569;stroke-width:1;"/></g><g class="link" data-entity-1="Traveler" data-entity-2="DeleteActivity" data-uid="lnk27" id="link_Traveler_DeleteActivity"><path d="M34.665,354.1788 C38.8568,391.4841 51.0069,447.3626 86,480.0986 C95.1473,488.656 106.9025,494.2715 118.9936,497.9308" fill="none" style="stroke:#475569;stroke-width:1;"/></g><g class="link" data-entity-1="Traveler" data-entity-2="DeleteTrip" data-uid="lnk28" id="link_Traveler_DeleteTrip"><path d="M37.3991,354.215 C45.1255,408.4066 61.794,503.856 86,528.0986 C98.4386,540.5561 116.367,546.8528 133.272,549.9384" fill="none" style="stroke:#475569;stroke-width:1;"/></g><g class="link" data-entity-1="CreateTrip" data-entity-2="Generate" data-uid="lnk29" id="link_CreateTrip_Generate"><polygon fill="#475569" points="389.6411,454.0438,382.1361,447.6662,384.8444,452.6325,379.878,455.3409,389.6411,454.0438" style="stroke:#475569;stroke-width:1;"/><path d="M250.5216,413.112 C292.3318,425.4134 340.297,439.5258 383.8851,452.3503" fill="none" style="stroke:#475569;stroke-width:1;stroke-dasharray:7,7;"/><text fill="#000000" font-family="Arial" font-size="13" lengthAdjust="spacing" textLength="55.6563" x="289" y="421.2925">&#171;include&#187;</text></g><g class="link" data-entity-1="Generate" data-entity-2="Enrich" data-uid="lnk30" id="link_Generate_Enrich"><polygon fill="#475569" points="668.8019,511.2939,660.6102,505.8261,663.8742,510.4463,659.2541,513.7103,668.8019,511.2939" style="stroke:#475569;stroke-width:1;"/><path d="M572.8692,494.7928 C603.9792,500.144 632.1268,504.9855 662.8887,510.2768" fill="none" style="stroke:#475569;stroke-width:1;stroke-dasharray:7,7;"/><text fill="#000000" font-family="Arial" font-size="13" lengthAdjust="spacing" textLength="55.6563" x="594" y="495.2925">&#171;include&#187;</text></g><g class="link" data-entity-1="Regenerate" data-entity-2="Alternative" data-uid="lnk31" id="link_Regenerate_Alternative"><polygon fill="#475569" points="393.8545,518.5921,386.4877,512.0553,389.0891,517.0785,384.0659,519.6799,393.8545,518.5921" style="stroke:#475569;stroke-width:1;"/><path d="M245.0692,471.1279 C280.0491,482.3168 324.4415,496.5019 364,509.0986 C373.6566,512.1736 378.1007,513.5883 388.136,516.7758" fill="none" style="stroke:#475569;stroke-width:1;stroke-dasharray:7,7;"/><text fill="#000000" font-family="Arial" font-size="13" lengthAdjust="spacing" textLength="55.6563" x="289" y="481.2925">&#171;include&#187;</text></g><g class="link" data-entity-1="LLM" data-entity-2="Generate" data-uid="lnk32" id="link_LLM_Generate"><path d="M233.3761,594.9176 C245.3392,590.3974 257.8464,585.0658 269,579.0986 C292.0064,566.7903 340.7103,521.8621 364,510.0986 C371.1015,506.5117 378.6721,503.2135 386.3668,500.2058" fill="none" style="stroke:#475569;stroke-width:1;"/></g><g class="link" data-entity-1="LLM" data-entity-2="Alternative" data-uid="lnk33" id="link_LLM_Alternative"><path d="M233.2127,598.8423 C271.269,589.6448 324.539,576.7705 370.7197,565.6095" fill="none" style="stroke:#475569;stroke-width:1;"/></g><g class="link" data-entity-1="Providers" data-entity-2="Enrich" data-uid="lnk34" id="link_Providers_Enrich"><path d="M546.7417,588.875 C589.7239,576.9878 643.2516,562.1842 686.7171,550.1634" fill="none" style="stroke:#475569;stroke-width:1;"/></g><!--SRC=[XLFBZXCn4BpFLpJXdDNkaiU2Lf4cZ-4I46839oxDJ6TYhMD7jYTXGNpHVWAt_JBQyuep2IA7Q5nTNUtkBh_Q6Sot21AVTE70RicXmiW99mbMHknMAAGsq8Slbc26_3SNc1lSHf6ajGEdmOXyuo0JXb8dj8hier0xP0fyn_GnDxfGsKnxbTT9-GiOTeEPFWYLmngbfI1Ifnb51cwkWq16QooaIxHo7t5B41k1CeZ7nkX3NMym7Wv7RuCWfexnNn70L9kCJCsxJcx6jp6ZNlKK-nra5vPIFu8olzlR8ab6t5j7-NOuUhEO_bVPpmvLBkdyRgF1U70tlLGnkKlYPCOwKTNMok2U99degDPxUIvZBt- -gUNo0tmoUYzOkmTemGD-9UF5_1yfbIBCqM6RQilSzjGgX197v_JAXfh1zHuS6lOARJLOifRjKghD6GXfdoaNrl7cCKsvOLUI6Z0aBdKEejBWJw6wCJPr4-JFCFfLq04ijvU1uzjMNIsvWB-xFMCA9zY9Q9vAdeSyBwJD3A4ZsF5Cj48fVjRAPK8LxAQy9w_9ITQP8dM5uHIRRYWh99Lf3U5qDgnAU-8fMhuK-ZS7ARkBVbIzBfGHwQOppgQILkGVWTWBzzHCzKAHXoBFMRxHBL02IfwzBxUlxXOVps7cd1teEZKgBAwX2-nsJjMvd1FRkZ4qzFkLHKAWjKC8LYRe87xp9r2xvH1jTng2mTuwjPkXdTxnfC_pK2aK7KNXwchIBXdUmVszKAaiCffCeXRsd6gd7KQmLiy95j8XHlwbyoLQEzNdS8N71ys1sa9_0G00]--></g></svg>
