<svg xmlns="http://www.w3.org/2000/svg" xmlns:xlink="http://www.w3.org/1999/xlink" contentStyleType="text/css" data-diagram-type="DESCRIPTION" height="619px" preserveAspectRatio="none" style="width:915px;height:619px;background:#FFFFFF;" version="1.1" viewBox="0 0 915 619" width="915px" zoomAndPan="magnify"><title>TripTailor - Use Case Diagram</title><defs/><g><g class="title" data-source-line="2"><text fill="#000000" font-family="Arial" font-size="14" font-weight="bold" lengthAdjust="spacing" textLength="199.9512" x="354.0244" y="23.1318">TripTailor - Use Case Diagram</text></g><!--cluster TripTailor--><g class="cluster" data-entity="TripTailor" data-source-line="28" data-uid="ent0005" id="cluster_TripTailor"><rect fill="#F8FAFC" height="479" rx="5" ry="5" style="stroke:#64748B;stroke-width:1;" width="823" x="86" y="49.0986"/><text fill="#000000" font-family="Arial" font-size="14" font-weight="bold" lengthAdjust="spacing" textLength="64.5586" x="465.2207" y="64.2305">TripTailor</text></g><!--entity Traveler--><g class="entity" data-entity="Traveler" data-source-line="24" data-uid="ent0002" id="entity_Traveler"><ellipse cx="31.6724" cy="263.5986" fill="#F1F1F1" rx="8" ry="8" style="stroke:#0F172A;stroke-width:0.5;"/><path d="M31.6724,271.5986 L31.6724,298.5986 M18.6724,279.5986 L44.6724,279.5986 M31.6724,298.5986 L18.6724,313.5986 M31.6724,298.5986 L44.6724,313.5986" fill="none" style="stroke:#0F172A;stroke-width:0.5;"/><text fill="#0F172A" font-family="Arial" font-size="14" lengthAdjust="spacing" textLength="51.3447" x="6" y="328.2305">Traveler</text></g><!--entity LLM--><g class="entity" data-entity="LLM" data-source-line="25" data-uid="ent0003" id="entity_LLM"><ellipse cx="181.3066" cy="546.5986" fill="#F1F1F1" rx="8" ry="8" style="stroke:#0F172A;stroke-width:0.5;"/><path d="M181.3066,554.5986 L181.3066,581.5986 M168.3066,562.5986 L194.3066,562.5986 M181.3066,581.5986 L168.3066,596.5986 M181.3066,581.5986 L194.3066,596.5986" fill="none" style="stroke:#0F172A;stroke-width:0.5;"/><text fill="#0F172A" font-family="Arial" font-size="14" lengthAdjust="spacing" textLength="99.6133" x="131.5" y="611.2305">Configured LLM</text></g><!--entity Providers--><g class="entity" data-entity="Providers" data-source-line="26" data-uid="ent0004" id="entity_Providers"><ellipse cx="469.1895" cy="546.5986" fill="#F1F1F1" rx="8" ry="8" style="stroke:#0F172A;stroke-width:0.5;"/><path d="M469.1895,554.5986 L469.1895,581.5986 M456.1895,562.5986 L482.1895,562.5986 M469.1895,581.5986 L456.1895,596.5986 M469.1895,581.5986 L482.1895,596.5986" fill="none" style="stroke:#0F172A;stroke-width:0.5;"/><text fill="#0F172A" font-family="Arial" font-size="14" lengthAdjust="spacing" textLength="135.3789" x="401.5" y="611.2305">Travel Data Providers</text></g><!--entity Demo--><g class="entity" data-entity="Demo" data-source-line="29" data-uid="ent0006" id="entity_Demo"><ellipse cx="181.6792" cy="94.0345" fill="#EFF6FF" rx="75.1792" ry="17.4358" style="stroke:#2563EB;stroke-width:0.5;"/><text fill="#0F172A" font-family="Arial" font-size="14" lengthAdjust="spacing" textLength="119.834" x="121.7622" y="98.5838">Start demo session</text></g><!--entity Register--><g class="entity" data-entity="Register" data-source-line="30" data-uid="ent0007" id="entity_Register"><ellipse cx="181.6733" cy="146.3333" fill="#EFF6FF" rx="69.1733" ry="16.2347" style="stroke:#2563EB;stroke-width:0.5;"/><text fill="#0F172A" font-family="Arial" font-size="14" lengthAdjust="spacing" textLength="105.0547" x="129.146" y="150.8826">Register account</text></g><!--entity Login--><g class="entity" data-entity="Login" data-source-line="31" data-uid="ent0008" id="entity_Login"><ellipse cx="181.4723" cy="194.9821" fill="#EFF6FF" rx="29.9723" ry="14.3835" style="stroke:#2563EB;stroke-width:0.5;"/><text fill="#0F172A" font-family="Arial" font-size="14" lengthAdjust="spacing" textLength="38.1445" x="162.4" y="199.5314">Log in</text></g><!--entity ListTrips--><g class="entity" data-entity="ListTrips" data-source-line="32" data-uid="ent0009" id="entity_ListTrips"><ellipse cx="181.4404" cy="244.0867" fill="#EFF6FF" rx="67.9404" ry="15.9881" style="stroke:#2563EB;stroke-width:0.5;"/><text fill="#0F172A" font-family="Arial" font-size="14" lengthAdjust="spacing" textLength="101.9307" x="130.475" y="248.636">View saved trips</text></g><!--entity ViewTrip--><g class="entity" data-entity="ViewTrip" data-source-line="33" data-uid="ent0010" id="entity_ViewTrip"><ellipse cx="181.6802" cy="293.2347" fill="#EFF6FF" rx="61.1802" ry="14.636" style="stroke:#2563EB;stroke-width:0.5;"/><text fill="#0F172A" font-family="Arial" font-size="14" lengthAdjust="spacing" textLength="84.0273" x="139.6665" y="297.784">View itinerary</text></g><!--entity CreateTrip--><g class="entity" data-entity="CreateTrip" data-source-line="34" data-uid="ent0011" id="entity_CreateTrip"><ellipse cx="181.515" cy="442.0016" fill="#EFF6FF" rx="87.515" ry="19.903" style="stroke:#2563EB;stroke-width:0.5;"/><text fill="#0F172A" font-family="Arial" font-size="14" lengthAdjust="spacing" textLength="148.6338" x="107.1981" y="446.551">Create personalized trip</text></g><!--entity Generate--><g class="entity" data-entity="Generate" data-source-line="35" data-uid="ent0012" id="entity_Generate"><ellipse cx="469.1199" cy="431.2226" fill="#EFF6FF" rx="103.6199" ry="23.124" style="stroke:#2563EB;stroke-width:0.5;"/><text fill="#0F172A" font-family="Arial" font-size="14" lengthAdjust="spacing" textLength="184.4404" x="376.8996" y="435.7719">Generate structured schedule</text></g><!--entity Enrich--><g class="entity" data-entity="Enrich" data-source-line="36" data-uid="ent0013" id="entity_Enrich"><ellipse cx="784.926" cy="478.1838" fill="#EFF6FF" rx="115.926" ry="25.5852" style="stroke:#2563EB;stroke-width:0.5;"/><text fill="#0F172A" font-family="Arial" font-size="14" lengthAdjust="spacing" textLength="138.5234" x="715.6642" y="472.9442">Enrich generation with</text><text fill="#0F172A" font-family="Arial" font-size="14" lengthAdjust="spacing" textLength="174.3301" x="697.7609" y="489.0428">places, events, and weather</text></g><!--entity Regenerate--><g class="entity" data-entity="Regenerate" data-source-line="37" data-uid="ent0014" id="entity_Regenerate"><ellipse cx="181.3366" cy="499.8659" fill="#EFF6FF" rx="86.8366" ry="19.7673" style="stroke:#2563EB;stroke-width:0.5;"/><text fill="#0F172A" font-family="Arial" font-size="14" lengthAdjust="spacing" textLength="147.0889" x="107.7921" y="504.4153">Regenerate one activity</text></g><!--entity Alternative--><g class="entity" data-entity="Alternative" data-source-line="38" data-uid="ent0015" id="entity_Alternative"><ellipse cx="469.0534" cy="496.0093" fill="#EFF6FF" rx="105.0534" ry="23.4107" style="stroke:#2563EB;stroke-width:0.5;"/><text fill="#0F172A" font-family="Arial" font-size="14" lengthAdjust="spacing" textLength="187.5645" x="375.2712" y="500.5586">Suggest contextual alternative</text></g><!--entity DeleteActivity--><g class="entity" data-entity="DeleteActivity" data-source-line="39" data-uid="ent0016" id="entity_DeleteActivity"><ellipse cx="181.3155" cy="340.9617" fill="#EFF6FF" rx="62.3155" ry="14.8631" style="stroke:#2563EB;stroke-width:0.5;"/><text fill="#0F172A" font-family="Arial" font-size="14" lengthAdjust="spacing" textLength="87.1445" x="137.7432" y="345.5111">Delete activity</text></g><!--entity DeleteTrip--><g class="entity" data-entity="DeleteTrip" data-source-line="40" data-uid="ent0017" id="entity_DeleteTrip"><ellipse cx="181.6181" cy="388.9821" fill="#EFF6FF" rx="48.1181" ry="14.3835" style="stroke:#2563EB;stroke-width:0.5;"/><text fill="#0F172A" font-family="Arial" font-size="14" lengthAdjust="spacing" textLength="63.8066" x="149.7148" y="393.5314">Delete trip</text></g><!--entity Persist--><g class="entity" data-entity="Persist" data-source-line="41" data-uid="ent0018" id="entity_Persist"><ellipse cx="469.0689" cy="352.9124" fill="#EFF6FF" rx="89.5689" ry="20.3138" style="stroke:#2563EB;stroke-width:0.5;"/><text fill="#0F172A" font-family="Arial" font-size="14" lengthAdjust="spacing" textLength="153.2891" x="392.4244" y="357.4617">Persist itinerary changes</text></g><g class="link" data-entity-1="Traveler" data-entity-2="Demo" data-uid="lnk19" id="link_Traveler_Demo"><polygon fill="#475569" points="106.323,107.2716,96.478,107.5452,101.8122,109.4285,99.9289,114.7626,106.323,107.2716" style="stroke:#475569;stroke-width:1;"/><path d="M34.1853,254.8785 C37.9643,215.976 49.763,156.5024 86,121.0986 C91.8583,115.3751 93.4289,113.4369 100.91,109.8598" fill="none" style="stroke:#475569;stroke-width:1;"/></g><g class="link" data-entity-1="Traveler" data-entity-2="Register" data-uid="lnk20" id="link_Traveler_Register"><polygon fill="#475569" points="112.2566,156.1583,102.4243,155.5874,107.5775,157.9207,105.2442,163.0739,112.2566,156.1583" style="stroke:#475569;stroke-width:1;"/><path d="M39.9611,255.0594 C47.2245,227.9063 60.9655,192.5329 86,171.0986 C93.6058,164.5866 97.1103,161.8633 106.6417,158.2732" fill="none" style="stroke:#475569;stroke-width:1;"/></g><g class="link" data-entity-1="Traveler" data-entity-2="Login" data-uid="lnk21" id="link_Traveler_Login"><polygon fill="#475569" points="151.0914,197.3281,141.6346,194.5771,146.137,198.0017,142.7124,202.5042,151.0914,197.3281" style="stroke:#475569;stroke-width:1;"/><path d="M52.7676,254.8455 C61.4146,241.7793 72.6247,228.1858 86,219.0986 C105.3219,205.9714 125.3277,200.8312 145.1461,198.1365" fill="none" style="stroke:#475569;stroke-width:1;"/></g><g class="link" data-entity-1="Traveler" data-entity-2="ListTrips" data-uid="lnk22" id="link_Traveler_ListTrips"><polygon fill="#475569" points="114.2457,260.1546,104.4917,258.7909,109.4395,261.533,106.6973,266.4808,114.2457,260.1546" style="stroke:#475569;stroke-width:1;"/><path d="M57.1965,281.0076 C66.1406,276.9001 76.4033,272.495 86,269.0986 C95.039,265.8996 98.9238,264.5491 108.4782,261.8087" fill="none" style="stroke:#475569;stroke-width:1;"/></g><g class="link" data-entity-1="Traveler" data-entity-2="ViewTrip" data-uid="lnk23" id="link_Traveler_ViewTrip"><polygon fill="#475569" points="120.4944,293.0986,111.4944,289.0986,115.4944,293.0986,111.4944,297.0986,120.4944,293.0986" style="stroke:#475569;stroke-width:1;"/><path d="M57.2719,293.0986 C74.5526,293.0986 92.3881,293.0986 114.4944,293.0986" fill="none" style="stroke:#475569;stroke-width:1;"/></g><g class="link" data-entity-1="Traveler" data-entity-2="CreateTrip" data-uid="lnk24" id="link_Traveler_CreateTrip"><polygon fill="#475569" points="98.1534,421.9119,92.4827,413.8594,93.8624,419.3454,88.3763,420.7251,98.1534,421.9119" style="stroke:#475569;stroke-width:1;"/><path d="M40.6899,331.3655 C48.2317,357.7853 62.0032,391.8564 86,413.0986 C89.7265,416.3974 88.6721,416.2411 93.0042,418.8321" fill="none" style="stroke:#475569;stroke-width:1;"/></g><g class="link" data-entity-1="Traveler" data-entity-2="Regenerate" data-uid="lnk25" id="link_Traveler_Regenerate"><polygon fill="#475569" points="96.7743,479.8863,91.5059,471.565,92.6145,477.1122,87.0673,478.2207,96.7743,479.8863" style="stroke:#475569;stroke-width:1;"/><path d="M33.8374,331.3685 C37.2958,371.4547 48.8019,433.6847 86,471.0986 C89.2669,474.3845 87.9042,473.9709 91.7825,476.5574" fill="none" style="stroke:#475569;stroke-width:1;"/></g><g class="link" data-entity-1="Traveler" data-entity-2="DeleteActivity" data-uid="lnk26" id="link_Traveler_DeleteActivity"><polygon fill="#475569" points="118.7868,327.067,111.1376,320.863,113.959,325.766,109.056,328.5874,118.7868,327.067" style="stroke:#475569;stroke-width:1;"/><path d="M57.1779,305.2428 C66.1202,309.3552 76.3866,313.7499 86,317.0986 C96.4702,320.7459 101.9756,322.5367 112.9935,325.5058" fill="none" style="stroke:#475569;stroke-width:1;"/></g><g class="link" data-entity-1="Traveler" data-entity-2="DeleteTrip" data-uid="lnk27" id="link_Traveler_DeleteTrip"><polygon fill="#475569" points="133.1766,383.6139,125.237,377.7861,128.2917,382.5473,123.5304,385.6019,133.1766,383.6139" style="stroke:#475569;stroke-width:1;"/><path d="M53.7325,331.4418 C62.2881,343.8063 73.1911,356.5181 86,365.0986 C99.9226,374.4253 111.3476,378.8476 127.3147,382.334" fill="none" style="stroke:#475569;stroke-width:1;"/></g><g class="link" data-entity-1="CreateTrip" data-entity-2="Generate" data-uid="lnk28" id="link_CreateTrip_Generate"><polygon fill="#475569" points="378.1187,454.1262,368.5303,451.8759,373.2065,455.0592,370.0232,459.7354,378.1187,454.1262" style="stroke:#475569;stroke-width:1;"/><path d="M269.0437,457.28 C275.1074,458.0039 281.1372,458.6249 287,459.0986 C313.137,461.2107 319.9444,462.0502 346,459.0986 C356.4727,457.9123 361.4614,457.2901 372.224,455.2458" fill="none" style="stroke:#475569;stroke-width:1;stroke-dasharray:7,7;"/><text fill="#000000" font-family="Arial" font-size="13" lengthAdjust="spacing" textLength="55.6563" x="289" y="455.2925">&#171;include&#187;</text></g><g class="link" data-entity-1="CreateTrip" data-entity-2="Persist" data-uid="lnk29" id="link_CreateTrip_Persist"><polygon fill="#475569" points="379.1329,372.9335,369.4459,371.1557,374.2724,374.1061,371.322,378.9326,379.1329,372.9335" style="stroke:#475569;stroke-width:1;"/><path d="M249.4584,421.925 C256.1773,419.2289 262.8008,416.2827 269,413.0986 C277.7781,408.59 278.0707,404.2999 287,400.0986 C303.8915,392.1511 336.2998,383.2666 373.3003,374.3406" fill="none" style="stroke:#475569;stroke-width:1;stroke-dasharray:7,7;"/><text fill="#000000" font-family="Arial" font-size="13" lengthAdjust="spacing" textLength="55.6563" x="289" y="378.2925">&#171;include&#187;</text></g><g class="link" data-entity-1="Generate" data-entity-2="Enrich" data-uid="lnk30" id="link_Generate_Enrich"><polygon fill="#475569" points="668.7253,460.8441,660.4166,455.5559,663.7804,460.104,659.2324,463.4678,668.7253,460.8441" style="stroke:#475569;stroke-width:1;"/><path d="M572.8153,446.4882 C603.4896,451.0796 631.3753,455.2535 662.7914,459.956" fill="none" style="stroke:#475569;stroke-width:1;stroke-dasharray:7,7;"/><text fill="#000000" font-family="Arial" font-size="13" lengthAdjust="spacing" textLength="55.6563" x="594" y="446.2925">&#171;include&#187;</text></g><g class="link" data-entity-1="Regenerate" data-entity-2="Alternative" data-uid="lnk31" id="link_Regenerate_Alternative"><polygon fill="#475569" points="363.848,499.7418,354.7576,495.9518,358.8494,499.8579,354.9433,503.9496,363.848,499.7418" style="stroke:#475569;stroke-width:1;"/><path d="M268.6311,500.6273 C293.5911,500.6373 320.8823,500.5103 346,500.0986 C351.827,500.0031 351.8115,500.0212 357.8496,499.8811" fill="none" style="stroke:#475569;stroke-width:1;stroke-dasharray:7,7;"/><text fill="#000000" font-family="Arial" font-size="13" lengthAdjust="spacing" textLength="55.6563" x="289" y="496.2925">&#171;include&#187;</text></g><g class="link" data-entity-1="Regenerate" data-entity-2="Persist" data-uid="lnk32" id="link_Regenerate_Persist"><polygon fill="#475569" points="407.9639,373.6927,398.1151,373.7002,403.3964,375.7269,401.3697,381.0082,407.9639,373.6927" style="stroke:#475569;stroke-width:1;"/><path d="M255.7837,479.8733 C260.4644,477.2846 264.9257,474.3727 269,471.0986 C281.1206,461.3586 274.8215,450.7662 287,441.0986 C308.5766,423.9707 323.4066,437.861 346,422.0986 C356.6458,414.6716 353.7582,407.0735 364,399.0986 C377.085,388.9098 387.2992,382.8958 402.4829,376.1337" fill="none" style="stroke:#475569;stroke-width:1;stroke-dasharray:7,7;"/><text fill="#000000" font-family="Arial" font-size="13" lengthAdjust="spacing" textLength="55.6563" x="289" y="418.2925">&#171;include&#187;</text></g><g class="link" data-entity-1="DeleteActivity" data-entity-2="Persist" data-uid="lnk33" id="link_DeleteActivity_Persist"><polygon fill="#475569" points="408.8397,332.5319,401.3594,326.1253,404.0485,331.1021,399.0717,333.7912,408.8397,332.5319" style="stroke:#475569;stroke-width:1;"/><path d="M240.1683,326.0677 C255.2982,322.7692 271.6718,319.7655 287,318.0986 C313.0685,315.2638 320.0332,314.4475 346,318.0986 C366.8384,321.0286 383.3579,324.9276 403.0902,330.8162" fill="none" style="stroke:#475569;stroke-width:1;stroke-dasharray:7,7;"/><text fill="#000000" font-family="Arial" font-size="13" lengthAdjust="spacing" textLength="55.6563" x="289" y="311.2925">&#171;include&#187;</text></g><g class="link" data-entity-1="DeleteTrip" data-entity-2="Persist" data-uid="lnk34" id="link_DeleteTrip_Persist"><polygon fill="#475569" points="379.0851,350.9567,370.0007,347.1524,374.0863,351.0649,370.1738,355.1506,379.0851,350.9567" style="stroke:#475569;stroke-width:1;"/><path d="M229.7646,376.4549 C242.5374,372.9101 256.3299,368.9653 269,365.0986 C277.0655,362.6372 278.6997,360.5871 287,359.0986 C316.7093,353.7709 343.5912,351.725 373.0865,351.0866" fill="none" style="stroke:#475569;stroke-width:1;stroke-dasharray:7,7;"/><text fill="#000000" font-family="Arial" font-size="13" lengthAdjust="spacing" textLength="55.6563" x="289" y="348.2925">&#171;include&#187;</text></g><g class="link" data-entity-1="LLM" data-entity-2="Generate" data-uid="lnk35" id="link_LLM_Generate"><polygon fill="#475569" points="377.378,454.3061,367.608,455.5499,373.1019,456.8976,371.7543,462.3915,377.378,454.3061" style="stroke:#475569;stroke-width:1;"/><path d="M231.5404,564.6556 C267.1857,554.1399 314.5121,535.3344 346,504.0986 C359.8402,490.3692 349.4418,477.0643 364,464.0986 C368.1023,460.4451 367.4785,460.3055 372.2467,457.4158" fill="none" style="stroke:#475569;stroke-width:1;"/></g><g class="link" data-entity-1="LLM" data-entity-2="Alternative" data-uid="lnk36" id="link_LLM_Alternative"><polygon fill="#475569" points="379.8223,519.6219,369.9869,520.1364,375.3656,521.8885,373.6135,527.2672,379.8223,519.6219" style="stroke:#475569;stroke-width:1;"/><path d="M231.5038,578.7826 C265.7876,578.4733 311.4466,573.5081 346,553.0986 C357.4803,546.3177 353.1272,536.8162 364,529.0986 C368.943,525.59 368.9272,525.1629 374.4742,522.3418" fill="none" style="stroke:#475569;stroke-width:1;"/></g><g class="link" data-entity-1="Providers" data-entity-2="Enrich" data-uid="lnk37" id="link_Providers_Enrich"><polygon fill="#475569" points="702.1472,503.6451,692.3642,502.5081,697.3742,505.1347,694.7476,510.1448,702.1472,503.6451" style="stroke:#475569;stroke-width:1;"/><path d="M536.5913,555.3154 C584.9275,540.2295 644.8797,521.5183 696.4197,505.4326" fill="none" style="stroke:#475569;stroke-width:1;"/></g><!--SRC=[XLJBRjim4BphAxRkjGcIDB7J8Z3WbtfnYw19U-fbAwqb8ZHfa9JTjEY_TqazJ2b6uuDjpiw-XYEzsHaijWWIdtNbm6x9eSB42IS97etOFQAGsi0PVBC42-IlfS32u3P996qSE0r65AM3N1ZAdD0giKz2xP0fy1EpfyBeIkKBxQkyJSCdOjWIStqGge0DIajHf4apYWnSNaI1d3POIPTgvRxWbc1c1CeeFZD67vf-rvERc_67A8YPO_nF0Z3N9YVJy2xIoydLZ55VjO_zZR8hIvcN8EGFTrkbwPXt6rI-kXc_NyrVhUorGrL8UZdR-7foVJi_rJ6zJMVfWkiazLgF1lSaoJJ7qKAhZIWgGpcirvz7WDR_jj6Q3Kjq2FT6xmMtj87KdPBaEDVew8PH6B8LO_JWqF3zqrQ39MlP0g7Aae6OzfKAOHtV9cOPB-42gGLZubeN8EeQ_5UeEFPTq04i3vw3utdgUTTSmazdNp254-mVDC-1vo7FYsaBG-W8ThojLYZ5xwPoIAY3mvHFv6joadMcobpGrsObvPMaaDOIugILCY8heQX3h14SX2j_g9t4ZEmxe3qfnx-eSZXmrv9Cg5Nd3NHi1z2AlAF5NhZdLiuJlH-geY3h86CBqYzNeGIKBBhYGVRroBFZESvSiftSe4UDpHhe1BkJhpuFvRjdgVd2ZdS3MSaMeyPxTTIRkhKpd9rDQpVraCuwFRHsJ1_gxD63EpVqqEZAXzrQPGTpzTGu4GkracDTE3-VTXQ1Zt1t9rGcgvocqo6hbQfFwd8zfV5Ldn5Pn7EYo_q_yNI__egl4b-PFk5NK52dUqfQ8FPWzmeAaUOX-0S0]--></g></svg>
