<?xml version="1.0" encoding="UTF-8"?>
<svg version="1.1" xmlns="http://www.w3.org/2000/svg" width="48" height="48">
<path d="M0 0 C5.53302446 3.90566433 7.9598743 7.55385981 9.1875 14.25 C9.49612806 20.59402131 7.86006087 24.75106576 3.78125 29.58984375 C-0.3913062 33.93625646 -4.37565149 34.90290486 -10.25390625 35.3046875 C-15.16663024 35.19968271 -18.89885685 33.97653137 -22.5703125 30.6640625 C-27.05398716 25.70386203 -28.94879739 21.21042405 -29.375 14.5 C-29.32485954 11.06311556 -29.32485954 11.06311556 -30.8125 8.25 C-30.1525 6.93 -29.4925 5.61 -28.8125 4.25 C-27.1625 4.25 -25.5125 4.25 -23.8125 4.25 C-23.56628906 3.62738281 -23.32007813 3.00476563 -23.06640625 2.36328125 C-21.14607351 -0.87316739 -18.80601502 -1.25400123 -15.31640625 -2.2734375 C-9.8301839 -3.31761711 -4.94585938 -2.58365789 0 0 Z " fill="#083351" transform="translate(33.8125,7.75)"/>
<path d="M0 0 C5.1643517 3.64542473 7.17810602 6.40449771 8.4375 12.5625 C8.685 14.109375 8.9325 15.65625 9.1875 17.25 C5.5575 16.59 1.9275 15.93 -1.8125 15.25 C-1.8125 13.6 -1.8125 11.95 -1.8125 10.25 C-3.97916667 7.83333333 -3.97916667 7.83333333 -6.8125 6.25 C-8.1325 6.25 -9.4525 6.25 -10.8125 6.25 C-10.1525 6.91 -9.4925 7.57 -8.8125 8.25 C-9.8025 8.58 -10.7925 8.91 -11.8125 9.25 C-10.36495745 10.69754255 -8.77287087 10.80733561 -6.8125 11.25 C-6.8125 12.9 -6.8125 14.55 -6.8125 16.25 C-9.7825 16.58 -12.7525 16.91 -15.8125 17.25 C-17.4625 13.62 -19.1125 9.99 -20.8125 6.25 C-18.3375 6.745 -18.3375 6.745 -15.8125 7.25 C-15.8125 6.26 -15.8125 5.27 -15.8125 4.25 C-17.1325 3.59 -18.4525 2.93 -19.8125 2.25 C-18.8225 1.59 -17.8325 0.93 -16.8125 0.25 C-16.8125 -0.41 -16.8125 -1.07 -16.8125 -1.75 C-11.08691319 -3.44311935 -5.28057529 -2.8109959 0 0 Z " fill="#E46C3C" transform="translate(33.8125,7.75)"/>
<path d="M0 0 C2.66355234 -0.39169887 4.39224373 -0.40564529 6.66796875 1.11328125 C8.1510888 2.36389317 9.57954352 3.67864514 11 5 C10.67 6.65 10.34 8.3 10 10 C13.3 10.33 16.6 10.66 20 11 C21.39746302 15.19238905 19.84031875 17.10701803 18 21 C17.67 21.66 17.34 22.32 17 23 C16.35933594 22.80664062 15.71867187 22.61328125 15.05859375 22.4140625 C10.04889015 20.9059252 5.03460143 19.42282214 0 18 C0 17.01 0 16.02 0 15 C-0.33 15.99 -0.66 16.98 -1 18 C-1.99 17.67 -2.98 17.34 -4 17 C-4 15.35 -4 13.7 -4 12 C-3.195625 11.87625 -2.39125 11.7525 -1.5625 11.625 C-0.716875 11.41875 0.12875 11.2125 1 11 C1.33 10.34 1.66 9.68 2 9 C2 9.66 2 10.32 2 11 C2.99 11 3.98 11 5 11 C4.67 9.35 4.34 7.7 4 6 C2.35 6.33 0.7 6.66 -1 7 C-0.7525 6.1028125 -0.7525 6.1028125 -0.5 5.1875 C0.1114124 2.88655664 0.1114124 2.88655664 0 0 Z " fill="#134772" transform="translate(22,13)"/>
<path d="M0 0 C2.00720923 0.28674418 4.0085944 0.61866701 6 1 C4.02 1.99 4.02 1.99 2 3 C2.639375 3.226875 3.27875 3.45375 3.9375 3.6875 C6 5 6 5 6.75 7.625 C6.87375 8.800625 6.87375 8.800625 7 10 C6.01 9.34 5.02 8.68 4 8 C3.01 8 2.02 8 1 8 C1.66 11.63 2.32 15.26 3 19 C-4.75 24 -4.75 24 -7 24 C-8.15643724 19.26067238 -9.15337337 14.90794798 -9 10 C-9.33 9.67 -9.66 9.34 -10 9 C-9.34 7.68 -8.68 6.36 -8 5 C-6.35 5 -4.7 5 -3 5 C-2.690625 4.360625 -2.38125 3.72125 -2.0625 3.0625 C-1 1 -1 1 0 0 Z " fill="#0A3351" transform="translate(13,7)"/>
<path d="M0 0 C5.1643517 3.64542473 7.17810602 6.40449771 8.4375 12.5625 C8.7017025 14.1226613 8.9564866 15.68458023 9.1875 17.25 C6.8775 16.92 4.5675 16.59 2.1875 16.25 C1.95675781 15.57453125 1.72601563 14.8990625 1.48828125 14.203125 C-1.04946743 6.96660165 -1.04946743 6.96660165 -6.8125 2.25 C-10.12112737 1.37583117 -13.42828944 0.74941748 -16.8125 0.25 C-16.8125 -0.41 -16.8125 -1.07 -16.8125 -1.75 C-11.08691319 -3.44311935 -5.28057529 -2.8109959 0 0 Z " fill="#B15936" transform="translate(33.8125,7.75)"/>
<path d="M0 0 C3 2 3 2 3.73046875 4.1640625 C3.88128906 4.97617187 4.03210937 5.78828125 4.1875 6.625 C4.34605469 7.44226563 4.50460937 8.25953125 4.66796875 9.1015625 C4.77753906 9.72804688 4.88710937 10.35453125 5 11 C3.71186658 11.83878455 2.41936744 12.67086783 1.125 13.5 C0.40570312 13.9640625 -0.31359375 14.428125 -1.0546875 14.90625 C-3 16 -3 16 -5 16 C-5.76173392 11.6835078 -6.16063604 8.25566547 -5 4 C-3.02 5.65 -1.04 7.3 1 9 C0.67 8.34 0.34 7.68 0 7 C-0.04022391 4.6670134 -0.04320247 2.33293334 0 0 Z " fill="#E26B3C" transform="translate(11,15)"/>
<path d="M0 0 C5 1 5 1 7.0625 3.125 C7.701875 3.74375 8.34125 4.3625 9 5 C11.16299211 4.77242269 11.16299211 4.77242269 13 4 C14 5 14 5 14.0625 7.5625 C14.041875 8.366875 14.02125 9.17125 14 10 C9.545 10.495 9.545 10.495 5 11 C3.35 7.37 1.7 3.74 0 0 Z " fill="#E9A14B" transform="translate(13,14)"/>
<path d="M0 0 C3.78508515 -0.55663017 5.05868125 0.03694745 8.375 2.125 C11 5 11 5 10.875 8.3125 C10.441875 9.6428125 10.441875 9.6428125 10 11 C8.02 11.33 6.04 11.66 4 12 C4 10.02 4 8.04 4 6 C2.35 6.33 0.7 6.66 -1 7 C-0.7525 6.1028125 -0.7525 6.1028125 -0.5 5.1875 C0.1114124 2.88655664 0.1114124 2.88655664 0 0 Z " fill="#1C3A50" transform="translate(22,13)"/>
<path d="M0 0 C1.17949219 0.11988281 2.35898437 0.23976563 3.57421875 0.36328125 C4.92966797 0.52376953 4.92966797 0.52376953 6.3125 0.6875 C6.6425 1.6775 6.9725 2.6675 7.3125 3.6875 C6.3225 5.1725 6.3225 5.1725 5.3125 6.6875 C4.136875 6.213125 2.96125 5.73875 1.75 5.25 C-2.08853259 3.79943153 -5.61490191 3.11172897 -9.6875 2.6875 C-6.96946898 -1.1295183 -4.38225337 -0.47727512 0 0 Z " fill="#276CA5" transform="translate(35.6875,23.3125)"/>
<path d="M0 0 C0 1.65 0 3.3 0 5 C-4.455 6.485 -4.455 6.485 -9 8 C-9 6.68 -9 5.36 -9 4 C-4 0 -4 0 0 0 Z " fill="#174F7C" transform="translate(17,26)"/>
<path d="M0 0 C0.33 0.66 0.66 1.32 1 2 C1.66 2.33 2.32 2.66 3 3 C2.01 3.33 1.02 3.66 0 4 C-1.21869929 6.50447516 -1.21869929 6.50447516 -2 9 C-2.99 8.67 -3.98 8.34 -5 8 C-5 6.35 -5 4.7 -5 3 C-3.35 2.67 -1.7 2.34 0 2 C0 1.34 0 0.68 0 0 Z " fill="#195180" transform="translate(23,22)"/>
<path d="M0 0 C2.475 0.495 2.475 0.495 5 1 C5 2.32 5 3.64 5 5 C4.34 5.66 3.68 6.32 3 7 C2.01 4.69 1.02 2.38 0 0 Z " fill="#E16B3C" transform="translate(13,14)"/>
<path d="" fill="#083352" transform="translate(0,0)"/>
</svg>
